<svg width="24" height="24" version="1.1" viewBox="0 0 24 24" xmlns="http://www.w3.org/2000/svg">
 <path d="m14.621 3.6046c0.1411 0.17823 0.21536 0.4233 0.36389 0.90602l3.2156 10.568c-1.2105-0.62382-2.5026-1.0694-3.8468-1.2997l-2.0942-7.0773c-0.0446-0.1411-0.19309-0.23021-0.34161-0.18566-0.0891 0.0297-0.15596 0.0965-0.18567 0.18566l-2.072 7.0699c-1.3442 0.23765-2.6512 0.6758-3.8617 1.3071l3.2453-10.568c0.14852-0.48271 0.22278-0.72778 0.36389-0.90602 0.12624-0.15595 0.28963-0.28221 0.4827-0.35647 0.21537-0.0817 0.46786-0.0817 0.97285-0.0817h2.3096c0.50499 0 0.75748 0 0.97284 0.0817 0.18566 0.0743 0.34904 0.20052 0.47528 0.35647z" style="stroke-width:.074263"/>
 <path d="m15.008 15.576c-0.52727 0.45301-1.5892 0.76492-2.8072 0.76492-1.5001 0-2.7477-0.46786-3.0819-1.0917-0.11882 0.35647-0.14853 0.77234-0.14853 1.0323 0 0-0.0817 1.2922 0.8169 2.1834 0-0.46786 0.37874-0.8466 0.83918-0.8466 0.79461 0 0.79461 0.69808 0.79461 1.2624v0.052c0 0.83175 0.49757 1.5818 1.2699 1.9012-0.11139-0.23765-0.1708-0.49757-0.1708-0.7575 0-0.8169 0.48271-1.1213 1.0397-1.4779 0.44558-0.28221 0.93571-0.59412 1.2773-1.2179 0.18566-0.34162 0.27477-0.71293 0.27477-1.0991 7e-3 -0.24507-0.0371-0.48271-0.10397-0.7055z" style="stroke-width:.074263"/>
 <path d="m15.008 15.576c-0.52727 0.45301-1.5892 0.76492-2.8072 0.76492-1.5001 0-2.7477-0.46786-3.0819-1.0917-0.11882 0.35647-0.14853 0.77234-0.14853 1.0323 0 0-0.0817 1.2922 0.8169 2.1834 0-0.46786 0.37874-0.8466 0.83918-0.8466 0.79461 0 0.79461 0.69808 0.79461 1.2624v0.052c0 0.83175 0.49757 1.5818 1.2699 1.9012-0.11139-0.23765-0.1708-0.49757-0.1708-0.7575 0-0.8169 0.48271-1.1213 1.0397-1.4779 0.44558-0.28221 0.93571-0.59412 1.2773-1.2179 0.18566-0.34162 0.27477-0.71293 0.27477-1.0991 7e-3 -0.24507-0.0371-0.48271-0.10397-0.7055z" style="stroke-width:.074263"/>
</svg>
