<svg xmlns:dc="http://purl.org/dc/elements/1.1/" xmlns:cc="http://creativecommons.org/ns#" xmlns:rdf="http://www.w3.org/1999/02/22-rdf-syntax-ns#" xmlns:svg="http://www.w3.org/2000/svg" xmlns="http://www.w3.org/2000/svg" width="24" height="24" viewBox="0 0 24 24" style="-ms-transform: rotate(360deg); -webkit-transform: rotate(360deg); transform: rotate(360deg);" version="1.1" id="svg1052">
    <metadata id="metadata1058">
        <rdf:RDF>
            <cc:Work rdf:about="">
                <dc:format>image/svg+xml</dc:format>
                <dc:type rdf:resource="http://purl.org/dc/dcmitype/StillImage" />
                <dc:title />
            </cc:Work>
        </rdf:RDF>
    </metadata>
    <defs id="defs1056" />
    <path d="m 19.101131,21.342358 c 0.204045,-0.01986 0.402735,-0.07686 0.586277,-0.168182 0.679012,-0.33479 1.068816,-1.056242 1.378458,-2.555727 0.119457,-0.584705 1.878288,-9.6947898 1.900292,-9.8441096 0.04087,-0.2923526 -0.01256,-0.600423 -0.13203,-0.7481712 -0.03965,-0.040924 -0.08587,-0.074925 -0.136745,-0.1005944 l -0.09431,-0.048726 h -0.457391 c -0.397662,0 -0.468393,0 -0.546982,0.031436 -0.177611,0.0613 -0.32536,0.2451989 -0.400805,0.496685 -0.01729,0.059728 -0.26406,1.3847451 -0.546982,2.9439602 l -0.515547,2.832361 -0.0723,-0.330076 c -0.880201,-4.0033429 -1.200846,-5.425812 -1.248,-5.5515549 -0.03195,-0.096113 -0.08763,-0.1826115 -0.161894,-0.2514862 -0.165038,-0.1681813 -0.1839,-0.1728967 -0.891204,-0.1728967 -0.646006,0 -0.663295,0 -0.785894,0.1163119 -0.135175,0.1241707 -0.191759,0.3395063 -0.174469,0.6601511 0.0094,0.1807556 0.07073,0.4243828 1.08139,4.3758578 1.042096,4.066217 1.180413,4.625773 1.236998,4.993572 0.0723,0.471536 -0.07859,1.120684 -0.326932,1.403606 -0.0503,0.05815 -0.05816,0.0613 -0.13203,0.05031 -0.04402,0 -0.188615,-0.04244 -0.320646,-0.08016 -0.421239,-0.122601 -0.568987,-0.113167 -0.726166,0.04401 -0.150891,0.150893 -0.215335,0.389805 -0.216906,0.801613 0,0.402378 0.04401,0.534408 0.249913,0.743456 0.205906,0.209049 0.50926,0.326931 0.935215,0.361512 0.257773,0.01886 0.345793,0.01886 0.518691,-0.0016 z m -2.98011,-2.690902 c 0.122461,-0.06083 0.21372,-0.170357 0.251486,-0.301783 0.03144,-0.09116 0.03458,-0.154035 0.03458,-0.559556 0,-0.400807 -0.0047,-0.469965 -0.033,-0.556414 -0.06286,-0.190186 -0.213763,-0.30807 -0.436957,-0.341078 -0.06444,-0.01572 -0.314357,-0.01572 -0.557984,-0.01572 -0.573703,-0.0016 -0.594136,-0.01572 -0.701018,-0.289209 -0.106881,-0.282922 -0.150891,-0.512403 -0.177612,-0.946216 -0.01777,-1.016321 -0.02406,-2.032809 -0.01887,-3.049271 V 9.8180048 h 0.550126 c 0.713591,0 0.796896,-0.015719 0.946216,-0.1776124 0.08835,-0.1078669 0.14396,-0.2387683 0.160322,-0.3772287 0.02287,-0.2793113 0.02287,-0.5600234 0,-0.8393348 C 16.09744,8.1723428 15.9827,7.9978743 15.80666,7.9177131 15.71706,7.8784181 15.704493,7.8768471 15.099355,7.8705591 h -0.616141 l -0.0047,-1.9175817 c -0.0047,-1.7132492 -0.0079,-1.9285842 -0.033,-2.0087453 -0.043,-0.1696202 -0.158588,-0.3116595 -0.31593,-0.3882317 -0.08173,-0.037723 -0.113167,-0.039295 -0.502972,-0.045581 -0.424383,0 -0.559557,0 -0.674297,0.059728 -0.136745,0.066015 -0.232625,0.2090478 -0.290781,0.4369572 -0.022,0.084876 -0.0503,0.5438386 -0.119456,1.9835967 l -0.09431,1.876715 c 0,0 -0.125746,0 -0.282922,0.015718 -0.32379,0.015718 -0.413381,0.034579 -0.513976,0.1351738 -0.144605,0.1446044 -0.188614,0.2986398 -0.199618,0.7151636 -0.01572,0.5249773 0.03144,0.7654608 0.180756,0.9242119 0.117884,0.1273145 0.21062,0.157179 0.542267,0.1666102 l 0.27192,0.015719 v 2.8056422 c 0,2.672039 0.0094,3.173439 0.05345,3.574245 0.06444,0.581563 0.204332,1.114398 0.378801,1.458621 0.304926,0.597279 0.855052,0.969793 1.552926,1.049954 h 1.579647 l 0.11002,-0.06286 z m -11.7051068,0 c 0.1540351,-0.08331 0.251486,-0.242054 0.3143576,-0.521833 0.025149,-0.121029 0.028293,-0.630288 0.028293,-7.101339 0,-6.5763621 -0.00158,-6.9787399 -0.031435,-7.088765 C 4.6485387,3.6345919 4.4284885,3.4837004 4.1329922,3.530854 4.0779795,3.546572 3.5922972,3.6628841 3.0547455,3.8059169 2.5156221,3.9473779 1.9796424,4.0888387 1.86333,4.117131 1.5961261,4.1847179 1.5269674,4.2145819 1.4216576,4.3151763 1.2566198,4.4692115 1.2298995,4.6059572 1.2298995,5.26768 c 0,0.6538639 0.025149,0.785894 0.1886145,0.94936 0.1477481,0.1493199 0.2970679,0.157179 0.7167353,0.047154 0.1618943,-0.040868 0.3033553,-0.075447 0.3143576,-0.075447 0.015718,0 0.022004,1.232282 0.02672,5.91464 0.00471,5.400664 0.00786,5.925642 0.033008,6.035666 0.075447,0.317502 0.1776122,0.46525 0.3709421,0.534408 0.05344,0.02042 0.2090479,0.02515 0.7654608,0.02201 0.683728,0 0.6994459,0 0.7701763,-0.04244 z m 5.0344373,0 c 0.1446044,-0.0723 0.2389117,-0.212191 0.3096421,-0.455818 l 0.037723,-0.13203 0.00466,-6.970882 c 0.00322,-5.0202905 0,-7.0038873 -0.015719,-7.0871919 C 9.7348116,3.6911763 9.5587753,3.5214233 9.2805694,3.5214233 c -0.1037382,0 -0.3112141,0.047154 -1.3470224,0.3206448 C 7.0533455,4.0731209 6.6776881,4.1784307 6.5990987,4.2177254 6.4764672,4.2766066 6.3809072,4.3800366 6.3318948,4.5069344 6.294172,4.6012413 6.294172,4.6185319 6.294172,5.259821 c 0,0.6522921 0,0.6554358 0.040866,0.7591736 0.030234,0.071074 0.07462,0.1352493 0.1304584,0.1886147 0.1571789,0.1571789 0.2703477,0.1650378 0.7167355,0.053441 0.1084527,-0.028328 0.2174518,-0.05453 0.326932,-0.078589 0.012578,0 0.018861,1.8892894 0.022005,5.9586487 l 0.00471,5.957078 0.040866,0.135173 c 0.035163,0.138129 0.1087334,0.263471 0.2121914,0.361512 0.1225998,0.09745 0.1336021,0.09902 0.8959193,0.09431 0.6507203,0 0.7025893,0 0.7654607,-0.03773 z" fill="#000000" id="path1048" style="stroke-width:1.57179" />
</svg>