<svg enable-background="new 0 0 1024 1024" version="1.1" viewBox="0 0 1024 1024" xml:space="preserve" xmlns="http://www.w3.org/2000/svg"><title>A drawing of Jasper Albering</title>
<g transform="matrix(2.2348 0 0 2.2348 -624.12 -639.2)" fill="currentColor" style="paint-order:stroke fill markers"><path d="m337.64 453.85c-0.19229-6.012-0.19229-6.012-5.7226-5.1819-0.25436-3.0493 0.97232-5.1141 3.8579-5.8438 2.7268-0.68945 3.7493 1.3475 4.6572 3.4619 1.7966 4.1842 1.3593 8.5057 0.55548 12.72-0.53647 2.8128-0.57657 5.604-0.85232 8.4066-0.51349 5.2187 2.6101 7.3161 6.7287 9.0037 4.5177-6.1299 3.641-13.682 5.7434-20.05 3.6461-0.56216 3.7177 3.0626 7.3481 4.267 0.45807-14.302 4.2793-27.7 7.7855-41.794-6.8174 1.0117-10.797 5.6927-15.927 8.0779-7.1762 3.3362-12.621 4.5068-15.907 1.5479-4.2754-3.8496-4.8973-8.3425-3.6607-13.61 1.8788-8.0028 6.4557-14.531 11.306-20.855 3.2835-4.2809 7.0729-8.1738 11.483-13.207-0.18884 4.2232-1.7505 6.1926-3.4675 8.3882-6.435 8.2286-12.837 16.515-14.914 27.195-0.57956 2.9794-0.66736 5.5944 1.7267 7.8049 2.5861 2.3878 5.4904 2.1933 8.3697 0.82791 3.6025-1.7083 7.1077-3.6225 10.647-5.4639 5.5694-2.898 6.8826-8.6071 8.5393-13.803 2.2033-6.91 3.3208-13.983 3.2605-21.434-0.0412-5.0892 2.7213-10.199 5.091-14.972 0.57016-1.1485 1.6635-2.1532 4.1485-0.96652-5.5526 9.4373-7.3514 19.685-4.946 30.827 7.7248-14.761 18.549-27.506 25.411-42.784 1.5787 2.5136-0.13638 4.2747-0.48852 6.239-0.28238 1.5754-0.36246 3.1031 1.4859 3.7289 1.5961 0.54034 2.418-0.49936 3.0911-1.7939 3.5684-6.8637 8.052-13.362 4.7736-21.926-0.9892-2.5842 1.5515-5.2186 3.2364-7.4947 0.85245-1.1515 2.4469-2.3495 0.94348-3.8505-1.4541-1.4518-2.7599 0.0892-3.9465 0.84586-2.1807 1.3907-4.2845 2.902-6.5997 4.4858-0.0224-6.0655 7.8355-14.388 13.165-14.183 1.3813 0.0531 3.6214-0.0783 3.6648 1.8205 0.12228 5.3481 5.9129 8.1085 5.6872 13.79-0.11493 2.8925 9.2174 5.5576 12.414 3.7137 5.7889-3.3393 10.844-7.5862 14.331-13.382 1.3427-2.2315 2.8282-4.617 1.5991-7.4827-0.53397-1.2451-0.12497-2.412 0.71243-3.2284 3.9579-3.8593 6.5888-8.7513 10.189-12.877 0.64441-0.73843 1.4989-1.3209 2.3294-1.8635 1.4221-0.92908 2.9785-1.7919 4.6181-0.6413 1.8714 1.3133 1.7227 3.4699 0.80658 4.9685-2.7349 4.4737-4.4281 9.7555-9.3751 12.636-1.8346 1.0681-3.8282 2.2554-2.6573 5.4286 17.074-6.3545 31.707-16.599 46.235-28.769 1.1615 5.8351 4.0508 5.2625 7.418 4.3551 5.7513-1.55 11.157-1.6401 16.721 1.9109 4.034 2.5749 9.0408-0.80286 13.671-0.40216 0.91797 0.0794 1.8851-0.80374 2.861 0.13858 0.45612 2.2137-0.86731 2.3326-2.5822 2.3196-3.158-0.0239-6.1993 0.56921-9.2555 1.5151-6.6671 2.0633-8.5311 7.6011-10.695 12.915 1.4313 1.4592 2.599 0.71713 3.7112 0.7081 2.2108-0.018 4.5579-0.0684 5.136 2.7624 0.52496 2.5699-0.41913 4.6717-2.8752 5.7574-4.4099 1.9493-8.9069 3.7021-13.309 5.6678-1.4308 0.63889-3.2461 0.91922-3.9203 2.8026 1.6895 1.4919 3.3274-2.2289 5.1102 0.36887-2.3898 3.9208-7.6294 3.6536-11.562 6.9534 8.7253 1.8114 16.588 1.2949 24.122-1.2257 3.2288-1.0803 6.183-3.794 3.3401-8.1889-0.95172-1.4714-0.0533-2.788 0.77216-4.1275 1.9043-3.0903 4.1479-6.0671 4.1219-9.9776-8e-3 -1.2436 0.31323-2.433 1.8588-2.4188 1.4779 0.0136 1.9995 1.2325 2.0341 2.4079 0.0482 1.6378-0.2486 3.2838-0.36072 4.9289-0.0599 0.87991 0.18109 1.6707 1.0615 2.066 0.69312 0.31116 1.3033 0.0614 1.7523-0.4986 0.53046-0.66168 1.0153-1.3955 0.43909-2.2547-3.2703-4.8768 0.15149-5.6589 3.8201-6.1695 6.8199-0.94928 12.46 2.7136 14.804 9.6288 1.8819-0.15784 3.2503-1.3347 1.6822-2.7575-4.0036-3.6322-1.458-7.4464-0.78864-11.141 0.39868-2.2005 1.5819-4.2589 2.5273-6.6749 2.9838 2.0117 2.3701 4.4668 1.6577 7.0478-0.37268 1.35-1.5037 2.9159 0.0427 4.162 1.5207 1.2253 3.1588 0.46301 4.7126-0.18768 3.1242-1.3083 5.7998-3.2769 8.1066-5.718 1.7642-1.8669 3.7275-3.1426 6.9313-3.1741-1.8964 3.66-5.4025 5.2485-7.4673 8.092-1.3184 1.8158-4.6786 3.4597-1.5023 6.0834 2.8041 2.3161 4.9745 0.20242 6.6778-2.0135 4.5096-5.867 9.7703-10.853 16.417-14.222 1.3221-0.6701 2.8057-1.0385 4.237-1.4729 2.4783-0.75217 4.8879-0.4516 5.9577 2.0699 0.9809 2.3118-0.53552 4.2286-2.4497 5.4456-3.9253 2.4955-7.9509 4.8354-11.965 7.1883-1.4446 0.84677-2.769 1.7412-3.5157 3.628 2.0444 1.4977 4.5306 2.3297 5.7072 4.7115 0.48584 0.98364 1.6897 1.4115 2.5977 0.90558 4.3483-2.4232 9.247-0.0926 13.718-1.7294 1.462-0.53531 3.3233-0.25214 4.9509-6e-3 3.1522 0.47748 4.1882 2.4915 3.1974 5.4294-0.4187 1.2415-1.1976 2.3746-1.8937 3.5072-4.0959 6.6642-4.104 6.6593 1.2888 12.064-2.6777 2.0424-6.0754 16.216-4.6927 19.343 0.4599 1.0399 1.2487 1.421 2.2428 1.7395 6.6347 2.1261 6.6302 2.1402 4.1316 9.2205 4.0848-0.67407 7.9258-1.1801 10.199-5.4369 2.1683 1.2907 4.4242 2.5282 6.6509-0.58633-1.8818 9.908-9.5576 14.232-16.517 19.338 6.1365 3.5295 7.4421 2.9495 10.318-3.9654 3.8038 7.8611 9.1442 15.093 6.966 24.795 2.6899-0.22196 4.5467-2.5327 7.0942-1.2333 0.94043 0.83148 1.0211 2.2295 0.32184 3.0675-4.0381 4.8396-1.3183 8.6409 1.9025 12.13 4.495 4.8692 3.3064 11.475 5.2529 17.113 0.39691 1.1498-1.2687 5.0312-2.2139 7.5789-0.62232 1.6776-0.97992 3.4497 0.48254 5.4442 3.3762-4.972 8.8063-7.1678 12.233-11.607 1-1.2956 2.4651-2.2356 4.358-0.99506 1.6252 1.0652 1.3365 2.4334 1.0975 3.9583-0.3847 2.455-0.7511 4.9223-0.92963 7.3985-0.6319 8.7611-7.8549 12.565-13.309 17.618-4.4949 4.1648-4.5637 6.5446 0.58179 10.137 2.8634 1.9991 5.8762 3.7255 7.3444 7.1864 0.87463 2.062 2.6047 1.3634 4.3026 1.061 4.9498-0.88171 7.6334 1.1603 8.1137 6.1657 0.33838 3.526-0.2663 6.975-1.485 10.304-2.6146 7.1431-5.9164 14.205-1.6804 21.913 0.81799 1.4885-0.12024 2.8585-1.1549 4.0568-1.515 1.7548-2.9313 3.5948-4.4476 5.3484-3.1251 3.614-4.0945 7.5886-1.9232 11.997 1.5096 3.0649 1.0911 5.1062-2.7643 5.4504 0.93115 5.1779 1.7971 9.993 2.7305 15.184 3.2208-4.9361-0.0581-9.8684 0.67297-15.433 4.5506 3.7647 4.7954 8.1903 4.693 12.247-0.29852 11.827-4.6373 22.223-12.252 31.291-1.304 1.553-2.5443 2.7559-4.5894 1.7255-1.4547-0.73297-2.537-0.44507-3.5698 0.63556-0.72858 0.76227-1.9853 1.6111-2.5983 0.99054-3.4171-3.4595-7.6582-2.5426-11.783-2.8267-1.7923-0.12335-2.0286-2.3729-2.212-4.0687-0.95093-8.792-2.7531-17.404-5.5417-25.8-0.58331-1.7561-0.65619-4.8105-3.5084-3.4484-2.2982 1.0977-5.78 2.8056-4.602 6.1185 1.1538 3.2447-0.30896 4.7889-1.9155 7.0289-5.8732 8.1885-14.263 13.882-20.777 21.411-0.62476 0.72204-1.7075 1.1608-1.4544 2.7678 4.7634-0.59045 8.1538-3.8137 10.969-6.8845 2.4547-2.6779 5.3461-4.8991 7.6699-7.7147 1.5198-1.8412 4.0707-2.7529 6.3589-1.6475 2.2572 1.0905 2.0999 3.5432 1.8309 5.7552-0.92157 7.5776-6.3646 12.629-10.49 18.362-1.2211 1.6969-2.6981 3.324-4.0958 4.9451-5.6175 6.5147-17.252 8.7797-25.941 4.4703 7.8171-1.1105 16.235-0.28119 22.116-7.1231 5.3802-6.26 11.456-11.993 12.744-21.314-3.9791 3.4249-8.5163 6.393-11.792 10.394-3.8311 4.6796-9.0579 7.2274-13.583 10.807-1.3782 1.0901-3.5103 1.4033-5.2658 0.46661-6.6478-3.5469-10.305 1.4755-15.852 5.2192 3.856 0.65765 6.5001 1.1086 9.1288 1.5569 0.28204 7.0201 1.5881 7.9739 8.5576 6.9989 13.849-1.9376 27.825-2.506 41.74-3.7404 12.529-1.1113 24.755 2.7224 37.266 1.8254 5.6149-0.40247 8.8153 3.8469 12.066 7.5775 1.5567 1.7862 0.25836 3.0077-1.1302 4.119-1.5173 1.2143-3.4818 2.1335-3.1855 4.9554 5.5215 1.2061 10.267 5.0546 16.466 4.9102-5.1816 5.3907-10.588-1.5995-16.322-0.0497 2.1285 4.1403 6.8211 1.5529 8.2499 4.6512 0.0879 2.0401-1.5854 1.6343-2.4694 2.1475 2.66 5.3313 2.5077 5.6224-4.1249 7.0705 5.2907 2.3655 11.155 1.3398 16.3 5.0632-3.9547 3.4103-8.0132 3.8467-11.898 4.1356-1.5348-2.793 1.5648-2.0803 1.2542-3.9525-3.5182 1.5251-9.1166-4.5253-11.092 3.6354 5.887 2.6964 13.585-0.57404 18.015 5.4944-1.0001 1.8925-2.1011 1.6936-3.3246 1.5788-15.407-1.4462-30.834-2.4822-46.28-0.6842-6.812 0.79285-14.026 0.20587-19.674 5.501-1.1331 1.0621-3.0085 1.3956-4.7479 1.1663-0.16516-0.0218-0.35797-0.11078-0.49146-0.0558-5.5222 2.2766-10.753 5.1211-17.302 3.0191-1.7675-0.56732-2.726 2.7968-1.814 5.18 0.854 2.2319 2.9449 4.6291 0.34747 6.7988-2.1829 1.8235-3.9122-0.42371-5.784-1.3391-3.2441-1.5866-5.4308-0.22858-5.9435 3.3488-0.28992 2.0228 0.92511 4.3279-1.0783 6.2075-4.6738-1.5431-1.9258-9.0384-5.2959-8.9568-5.1082 0.1236-5.9912-4.8835-9.6545-5.5308-3.8022-0.67181-7.4075 0.9693-11.142 1.363-0.0126 0.44586-0.0251 0.89172-0.0376 1.3376 3.5767 0.40564 7.1456 0.94604 10.734 1.1539 1.5482 0.0897 3.1099-0.36749 3.4252 1.7688 0.32696 2.2148-1.5739 2.4792-2.8959 2.6653-6.226 0.87585-12.463 1.8408-18.729 2.2285-13.678 0.84601-27.37 0.7829-41.016 2.8966-9.7923 1.5166-18.604 5.4589-27.834 8.3905-3.5266 1.1201-7.8284 0.28589-10.574 3.2728-5.0423 5.4849-12.715 5.4058-18.491 9.2465-2.3502 1.5625-4.8111 2.6338-7.0285-0.24841-0.96982-1.2606-2.2482-1.2292-3.608-1.1065-1.5333 0.13837-3.5234 1.5732-4.3915-0.65509-0.99484-2.5538 1.821-2.6661 3.0555-3.764 2.4424-2.1722 4.917-4.3082 7.1465-6.7991-5.8427 0.57703-10.397 3.3022-15.133 6.6769-5.6721 4.0413-2.4259 10.875-6.7855 15.86-2.3371-4.3907-1.2329-8.3519-0.64032-12.218 0.22299-1.4548 1.1291-2.8226 1.2538-4.2706 0.16031-1.8618 2.1004-4.2007-0.0717-5.5399-2.3195-1.4299-4.8901-0.41864-6.8558 1.4187-2.4332 2.2744-5.0446 3.5672-8.3595 2.072-0.80264-0.36206-1.2527-1.058-1.2998-2.5859 4.8273-3.2568 11.476-3.5183 16.493-8.2086-3.6601-0.45483-7.0048-0.27393-10.34 0.3396-1.6652 0.30628-3.6119 0.99848-3.9676-1.4261-0.27826-1.8972 1.2416-2.9565 3.003-3.4285 3.4235-0.91724 6.8809-1.7478 10.079-4.0703-2.5331-2.7985-5.6113-1.8879-7.7375-1.3368-8.3254 2.158-17.428-2.2561-25.204 2.3201-0.34769 2.9673 2.6881 2.5525 2.7246 4.4979-0.17008 0.2052-0.3522 0.63916-0.57394 0.6604-3.2679 0.31366-7.4613 1.4761-8.9403-2.116-1.349-3.2761 2.9782-4.5712 4.8821-6.6752 0.75684-0.8363 2.2036-0.88226 2.6066-2.2416-1.0721-2.0474-2.5681-0.54688-3.8606-0.40369-2.1254 0.2356-3.6597-0.54779-4.2243-2.6056-0.56448-2.0573 0.2858-3.5486 2.3262-4.3398 4.0063-1.5537 7.5703-3.8577 10.965-6.0621-0.12921-2.0632-1.4209-2.6594-2.4583-2.1804-7.6353 3.5259-16.491 4.1566-23.232 9.8614-1.0144 0.85864-2.4022 1.6502-4.1232 1.3753-1.619-0.25854-3.7989 1.3448-4.5257-1.4367-0.6387-2.4442 1.1122-3.3722 2.9884-3.7355 4.2958-0.83185 5.6357-5.0095 8.0341-7.6164 5.0129-5.4486 11.643-7.6893 17.833-10.463 7.0158-3.1439 14.093-5.5969 20.151-10.789 6.0208-5.16 14.261-6.7962 21.002-10.876-1.0939-8.2855 3.374-12.667 11.922-12.191 2.5159 0.14008 5.9881 1.8749 6.9957-2.4232 0.95926-4.092 1.9502-8.1187-2.8728-10.961-3.0316-1.7864-6.0888-3.6583-9.3952-4.5006-5.0204-1.2789-9.6861 0.63867-13.857 3.4558-2.0573 1.3896-3.8167 3.2125-5.7962 4.7281-1.1822 0.90509-2.5515 1.8517-4.0814 0.75604-1.5011-1.0751-1.4031-2.7195-0.60818-4.0458 3.0131-5.0271 0.22354-8.1144-3.4641-10.934-1.3336-1.0195-3.1747-1.9709-1.7078-3.8978 1.3483-1.7711 2.9584-0.63837 4.3815 0.32935 0.79495 0.54059 1.537 1.3269 2.6682 0.90637-0.13602-5.8793-2.4677-7.5804-7.5045-5.4139-1.216 0.52301-2.4436 1.1335-3.478 1.9436-3.5864 2.8091-7.2905 4.0131-11.929 0.66663-2.3725 6.5474-4.8672 12.611-6.7328 18.863-1.2948 4.3387-2.8913 8.3662-5.852 11.805-1.369 1.59-2.9898 3.0909-5.1148 1.8387-2.0361-1.1997-1.8701-3.3433-1.1191-5.3641 0.68048-1.8312 1.9255-3.5982 0.29718-5.978-5.4514 4.4362-9.2933 9.6229-9.3081 17.298-3.2532-3.1295-6.6621-2.8975-7.9878 0.3399-1.6774 4.0966-3.0287 8.3444-2.833 13.27 5.0767-0.70892 4.5483-6.1775 8.4529-7.9341-0.914 2.6947-1.5405 5.5368-2.8247 8.0417-1.2258 2.3908-3.669 3.5267-6.3658 2.7685-2.5901-0.72833-2.5016-3.2502-2.7502-5.3635-0.38013-3.2306 1.9095-5.911 1.8087-9.2267-0.0857-2.8207-0.57492-4.8785-3.2657-6.0458-3.5018-1.5192-5.4343-4.8347-8.1909-7.2097-2.8213-2.4307-4.7137-1.9849-5.9564 1.4814-1.0664 2.9747-2.0139 5.9978-3.2158 8.9164-1.0098 2.452-2.7965 3.4482-5.0263 1.3691-2.3125-2.1563-6.8149-0.84619-7.4821-5.8132-6.7086 5.2625-5.1442 12.187-5.3841 18.347-0.23758 6.0999-2.4732 12.48 1.7614 18.458 1.6003 0.75214 2.4749-1.5627 4.0831-1.7726 0.89847 1.9327-0.6644 2.9105-1.385 4.04-0.86169 1.3506-1.8886 3.1309-3.8279 2.6683-2.1467-0.51221-3.1833-2.3127-3.3033-4.4924-0.4552-8.2684-1.9394-16.523-0.39578-24.823 0.2142-1.1518 0.70398-2.6093-0.19134-3.3632-4.3138-3.6321-1.7158-7.3151-0.0226-10.742 1.2919-2.6146 2.1862-5.3125 2.3559-8.0839 0.86404-14.109 5.3716-27.648 6.3868-41.731 0.12115-1.6806 0.39868-3.1472-0.39389-4.7892-6.0262-12.485-7.0936-25.679-6.3492-39.376 0.79211-14.575 1.8226-29.121 3.3558-43.622 0.95007-8.9856 2.5308-17.951 4.0539-26.816 0.87695-5.1041 2.9398-10.092 2.8282-15.534-0.0332-1.6173 0.78552-3.3375 3.8142-2.8742-0.75107 5.8062-0.96512 11.771-2.4438 17.404-1.0159 3.8699-1.4813 7.5901-1.8065 11.544-1.0323 12.549-2.8206 25.033-4.0639 37.567-1.4565 14.684-2.7115 29.393-0.47842 44.128 0.39917 2.634 0.38251 2.6365 2.7626 5.2084 2.4722-2.9347 2.4519-6.572 2.2329-9.7822-0.54242-7.9524-1.198-15.848-0.84201-23.861 0.17822-4.0121 0.83176-7.9323 1.3995-11.821 0.90787-6.219 2.7122-12.265 1.9393-18.705-0.22266-1.8554-0.24954-4.3649 2.2367-5.727 2.127 1.8038 0.35062 4.6827 1.9461 6.4568 7.1634-5.1316 9.4126-13.428 2.033-19.057-1.338 3.3159-1.4154 7.0495-4.1608 9.8377 2.4714-14.145 4.4045-28.327 4.7178-43.009m81.146-20.704c-0.56647 1.8164-2.1761 3.588-0.29434 5.5218 2.2147 2.2759 1.5011 4.6533 0.79532 7.3958-2.8623 11.122-8.7054 21.161-11.182 32.471-2.0096 9.1768 3.7591 17.584 12.228 15.911 5.204-1.028 11.04-2.1293 14.085-6.7639 4.4985-6.8475 11.755-6.6015 18.164-8.6778 2.8419-0.92066 5.7525-1.6291 8.6326-2.4316 12.578-3.5049 25.046-4.1352 37.693 0.16006 5.9973 2.0368 12.854 2.596 18.509-0.20245 7.2484-3.5867 14.389-5.1145 22.325-4.3676 7.619 0.71701 15.168 2.4712 22.961 0.11114 4.7176-1.4289 10.078-1.6501 14.814-0.27878 7.3557 2.13 14.773 3.9192 22.206 5.7036 1.4496 0.34808 2.811 1.0725 4.3376 0.3147 7.1163-3.5327 14.895-2.4767 22.415-3.1946 2.8649-0.2735 5.8572 0.49866 9.2466-1.0282-5.4358-8.8352-8.8547-18.178-12.691-27.341-2.5179-6.0144-2.747-6.0536-8.0819-2.5988-1.6187 1.0483-3.3918 2.5511-4.5759 0.22229-1.2515-2.4614-3.1392-1.9554-5.0263-2.1271-1.744-0.15872-3.7438 0.13736-4.2946-2.2588 3.3244-2.1492 6.7984-3.3557 10.693-3.8882 4.2147-0.57642 4.8638-4.0948 4.5377-7.6436-0.18109-1.9703-1.2381-3.6635-3.6552-2.9252-5.877 1.7951-11.005 4.9178-14.382 10.111-3.0948 4.7591-6.368 5.2429-9.0956 0.3089-3.6086-6.5276-6.8691-13.288-8.1494-20.773-0.45068-2.6347-1.1711-5.1472-4.6263-4.5067-4.4014 0.81586-7.3729-0.7702-9.376-4.6973-0.49457-0.96966-1.4394-1.8745-2.8265-1.6873-6.3055 5.1038-6.2996 5.1036-5.9671 12.947 0.0635 1.498 0.0441 2.9994 0.0883 4.4984 0.0751 2.5471-1.037 4.0908-3.6127 4.4408-4.895-5.8556-2.9271-16.909 3.8797-22.103 1.3484-1.029 3.7347-1.5082 2.4293-4.0681-2.8004-5.4909-2.1553-11.294-1.8411-17.132 0.18311-3.4016 0.65765-7.1344-3.2115-9.2769-1.139-0.63074-1.2783-1.875-1.3856-3.058-0.57849-6.3755-0.57587-6.3631-6.9292-4.8828-1.4536 0.33868-2.9602 0.46466-4.3978 0.85367-4.1207 1.115-5.5869 4.7236-6.4722 8.1565-0.8081 3.1337 2.7208 3.1664 4.5927 4.2426 3.5094 2.0178 7.1721 3.4922 11.372 3.1528 1.3559-0.10953 2.6733 0.28107 3.1196 2.3545-5.0427 0.79419-0.24084 5.6737-3.4379 8.1196-0.8161-4.1606-2.8744-5.2527-6.7957-4.1794-3.4735 0.95068-7.2435 0.86594-10.891 1.1124-1.7464 0.11798-3.7474 0.49881-4.5396-1.7653 0.5174-3.1519 4.1195-1.8378 5.4998-4.0912-4.7839-3.9945-5.0237-8.6085-1.6146-13.632 1.0268-1.5128 1.8474-3.1674 2.898-4.6616 0.70001-0.99551 1.5086-1.9611 0.75787-3.1446-2.6675-4.2048 0.34808-6.8513 2.6016-9.6656 1.5064-1.8813 3.7302-3.3842 2.9059-6.4565-0.73077-0.16919-1.3781-0.2702-1.9937-0.46939-5.1115-1.654-9.1968 1.8227-13.796 2.7158-8.8376 1.7162-17.874 0.87558-26.757 1.9133-3.3158 0.38742-7.1952-0.2623-9.6382 2.981-4.8708 6.4665-9.8879 12.777-14.114 19.773-3.894 6.4476-8.9697 12.318-15.782 16.188-1.4663 0.83313-3.0024 2.1343-5.1432 0.0346 8.5822-6.1866 18.546-11.236 17.167-24.214-2.6738 0.0628-3.1362 2.162-4.1233 3.5399-2.506 3.498-4.774 7.167-7.2981 10.651-0.9487 1.3094-1.852 3.9228-4.1194 2.0362-1.7522-1.4579 0.0344-3.0124 0.87964-4.3358 1.6299-2.5519 4.1547-4.7511 3.2018-8.586-3.9662 0.53571-4.6906 3.9921-5.6753 6.4095-1.9016 4.6683-4.8792 8.7189-6.2334 13.896-0.90448 3.4577-3.6495 8.978-9.1492 10.215-1.6566 0.37271-2.3935 1.6804-1.865 3.7109 2.8264 1.0389 5.765 2.119 8.916 3.2771-1.9144 3.9912-6.5828 4.6912-7.8745 7.8708-0.0166 2.8238 3.6058 2.5529 3.0896 5.4551-1.6318-0.22272-3.3284-0.16019-4.7976-0.70786-5.1634-1.9247-8.5036 0.72232-11.788 4.1384-2.9461 3.0645-5.7999 6.1269-7.5406 10.907m119.2 66.927c-0.9859-5.5474 0.66998-10.906 1.3489-16.308 0.40033-3.1865-0.39923-5.0823-3.5179-5.2291-6.9411-0.32678-15.581 4.8521-14.57 12.771 0.6322 4.9476 0.80072 9.9398 2.5434 14.689 0.99957 2.724 1.3373 5.4453 0.12317 8.2561-4.2271 9.7857-9.5082 18.734-16.516 26.996-9.8183 11.576-22.206 11.088-32.9 4.4078-3.9386-2.4602-8.015-4.2485-12.956-4.61-4.0499-0.29645-9.0525-0.91138-11.119-5.4323-5.145-11.254-12.39-21.694-13.783-34.453-0.16278-1.4909-0.22488-3.5622-2.0701-3.4726-3.8214 0.18552-7.3698 1.37-10.608 3.735-2.4575 1.7945-0.57739 3.6052-0.74286 5.3877-0.138 1.4868-0.27417 2.981-0.27631 4.4721-0.0153 10.735-4.5753 20.504-6.7487 30.778-1.1391 5.3848 0.30664 5.863 4.8281 5.7707 7.8713-0.16071 10.884 4.6744 7.6418 11.752-1.0423 2.2753-2.3322 4.3685-4.5172 5.8481-1.5694 1.0627-3.2621 2.2587-2.9766 4.6804 2.4913 0.69965 3.8541-1.1307 5.5764-1.9131 4.0349-1.8328 5.7012-1.0656 6.2455 3.2131 0.17008 1.3371 0.78781 2.0344 1.6739 2.8402 4.9515 4.5028 6.0291 10.056 3.3253 16.259-0.87445 2.0062-1.7098 4.2677-0.0684 6.1336 1.7235 1.9592 3.9965 1.1138 6.021 0.25641 3.9698-1.6813 7.8723-3.5249 11.868-5.1409 2.271-0.91852 5.0897-2.4749 6.9737-0.23102 2.0399 2.4294-0.20929 4.919-1.3539 7.3001-1.0417 2.1672-3.9026 3.3218-3.5297 6.524 3.6074 0.82794 6.3985-1.234 9.3364-2.5515 3.3527-1.5034 7.2373-4.0466 10.35-2.595 5.1613 2.4069 9.6542 0.38995 14.443-6.1e-4 2.1454-0.17505 4.3404-0.32172 6.4601-0.0574 1.8757 0.23383 3.3526 1.5262 1.7691 3.4551-3.5897 4.3726-0.20728 5.8693 2.9066 7.2576 2.8752 1.2819 6.0623 1.8819 8.8951 3.2361 2.6886 1.2852 4.4224 3.0324 1.1519 5.9927-2.6437 2.3929-3.8224 5.8491-5.2281 9.0876 3.9037 1.7972 6.1254-2.1774 9.3169-1.8271 1.8453 0.20245 3.9051 1.7266 5.2531-0.93426 1.3557-2.6758 1.0627-5.2695-0.78284-7.4921-3.6729-4.4233-1.665-7.9462 1.4491-11.461 4.114-4.644 9.8416-6.7359 15.134-9.428 2.3932-1.2173 3.9088-2.3336 4.7449-5.1004 1.6859-5.5781 4.3937-6.106 8.4764-2.1849 6.8643 6.5927 11.744 5.6445 16.567-2.4339 2.5566-4.282-0.21985-7.452-0.39923-11.005-0.48303-9.5692-6.5447-8.4706-12.36-8.9738-6.8265-0.5907-12.913-4.1895-20.244-3.5748-7.967 0.66821-9.3904 0.42505-12.601 7.7011-1.5009 3.402-3.8553 4.7633-7.1006 3.3698-2.5148-1.0798-4.5255-2.0524-6.5934 0.55048-0.55334 0.69653-1.498 0.67529-2.2007-0.0286-0.65588-0.65698-0.97668-1.827-0.27927-2.2061 4.5089-2.4506 3.8215-8.5894 8.226-11.225 1.665-0.99628 3.3634-2.7249 3.6204-5.09-3.4239-1.2762-4.6732-0.85681-7.7223 2.8538-4.3309 5.2705-9.4725 9.6122-14.55 14.135-4.2847 3.817-7.5461 8.1238-13.811 8.5517-1.187 0.0811-2.2153 2.2394-3.8697 0.97992-1.4864-1.1316-0.94971-2.8232-0.51532-4.1782 2.0866-6.5085 4.956-12.707 8.1185-18.744 0.97882-1.8687 2.9464-3.9504 5.2359-2.8898 3.6097 1.6723 5.1675-0.62079 7.1235-2.632 5.8994-6.0663 12.312-10.958 21.524-10.061 5.1236 0.49866 10.661-2.808 15.316 2.429 1.2174 1.3696 4.394 1.2511 6.6909 1.3507 3.8402 0.16663 6.3154-3.0391 5.5818-6.895-1.2653-6.6522-1.1194-13.439-2.4356-20.16-1.0007-5.1102-1.9258-10.064-4.3289-14.632-1.1859-2.2545-2.1326-4.4953-2.585-7.8691m-95.354-4.8541c2.0038 5.2313 5.4664 9.8702 6.0698 15.68 0.54443 5.2425 1.3116 10.435 3.5642 15.335 2.2092 4.8055 4.9985 8.0308 10.857 8.8682 8.1508 1.165 16.475 2.4139 23.501 7.4796 4.4733 3.2253 8.2069 1.4927 12.071-1.6295 9.195-7.4296 13.642-17.828 18.218-28.174 0.43677-0.98752 0.57214-2.3713 0.255-3.386-1.8542-5.9331-2.0462-12.059-2.7778-18.158-0.78058-6.5081-2.7636-8.0568-8.3507-7.1364-4.2106 0.6936-8.092-0.83411-12.129-1.955-5.3732-1.4919-10.851-3.2549-16.596-2.7444-11.123 0.98828-21.509 5.2993-32.426 7.3121-4.6919 0.86499-5.7665 5.1456-2.2566 8.5079m157.21 37.076c3.921-5.195 6.3016-10.86 5.8703-17.558-0.21289-3.3057-0.0574-6.6166 0.97717-9.8752 1.5249-4.803-3.5402-19.012-8.1868-20.555-10.467-3.4755-20.791-7.8827-32.361-6.8083-5.7665 0.53555-10.959 3.987-16.971 2.9092-1.3038-0.23367-2.7059 0.91751-2.4304 1.9409 0.89282 3.3157-1.7736 5.3246-2.4897 8.017-1.4692 5.5239 0.61597 10.301 2.2648 15.389 3.8433 11.857 9.1698 23.456 7.8488 36.452-0.41229 4.056 1.5756 5.4961 5.5557 5.7638 15.546 1.0453 27.986-5.6942 39.922-15.675m35.749-31.732c0.25543-5.8995 0.32727-11.823 2.671-17.329-7.2701-3.9679-14.754-1.9829-21.935-1.8962-10.079 0.1217-9.9993 0.52969-5.8761 9.6382 6.0572 13.381 2.5446 26.829-3.0492 38.621-6.9311 14.612-21.674 20.113-36.864 23.42-1.8461 0.40186-4.4632-0.23114-4.9041 2.4245-0.4444 2.6769 1.5735 3.8759 3.6785 5.26 4.6783 3.0761 9.0549 6.5016 9.0608 13.076 3e-3 3.0147 1.9868 5.4261 4.4164 8.7313 1.829-5.2352 5.8058-8.0995 7.7304-12.497 0.94916-2.1686 2.9354-4.8984 5.1139-2.0847 3.5201 4.5468 6.0025 2.41 8.9799-0.15778 1.758-1.5162 3.5656-3.0251 5.5384-4.2303 3.0908-1.8881 4.9188-4.3356 4.7812-8.087-0.0548-1.4916-0.0817-3.1423 1.8066-3.6737 1.954-0.54993 3.0356 0.58698 4.0399 2.1099 0.89276 1.3538 1.9413 3.0074 3.9932 1.9683 1.7788-0.90088 3.5966-1.9458 3.7997-4.2638 0.10114-1.1535 0.0344-2.3314-0.0608-3.4897-0.104-1.2669 0.0619-2.371 1.4017-2.8594 1.3445-0.49011 2.2103 0.30585 2.9466 1.2838 1.1982 1.5912 2.3842 3.1918 3.5694 4.7928 0.7934 1.0717 1.5416 2.3678 3.1546 1.8631 1.8224-0.57025 2.6507-2.2175 2.6462-3.8771-4e-3 -1.4118-0.69574-2.8804-1.308-4.2213-1.9936-4.3657-4.8648-8.2518-6.5057-12.849-3.7438-10.489-2.7181-20.708 1.1749-31.673m-294.02 98.42c2.8962 1.4405 3.6481-1.2179 5.0432-2.6414 1.6671-1.7009 3.4433-3.4798 6.0356-2.2314 2.5447 1.2255 3.5444 10.019 1.3937 11.911-1.362 1.198-1.9808 2.3476-0.6117 3.7457 1.5565 1.5895 2.6175 0.37207 3.6269-0.87415 1.2398-1.5308 2.5007-2.7971 2.0304-5.2368-0.80563-4.1798 2.9989-7.8422 2.0962-11.997-1.1258-5.1819-2.8088-10.245-5.3316-14.98-1.2042-2.2603-2.4633-4.7018-5.3026-4.6325-3.0228 0.0739-1.5717 3.5903-3.0003 5.0073-2.6155-0.63708-6.564-4.9554-6.9539 1.1465-0.42697 6.6824-0.44931 13.532 0.97418 20.784m313.77-72.879c0.0778 1.4997-0.0464 3.3503 2.0997 3.2701 4.6193-0.17248 4.2526 2.5369 3.5258 5.6138-0.49695 2.1038-1.2036 4.2042-1.3406 6.3366-0.23822 3.7099-1.5693 7.659 0.99481 11.235 2.1885-1.0801 2.2019-2.3668 1.319-3.5747-1.0361-1.4174-0.88092-2.4263-0.0452-3.9973 5.7855-10.875 7.4711-22.931 9.7259-34.817 0.47717-2.5154-0.89264-3.6232-2.9526-4.4574-2.1416-0.86725-2.963 0.47607-3.9363 1.9466-1.0928 1.651-2.493 3.1001-3.5679 4.7611-2.5892 4.0013-5.9152 7.6939-5.8226 13.684m-261.94-48.039c-1.7637 3.6805-1.1338 7.752-1.886 11.6-0.39526 2.0217-0.65094 4.3563 1.9511 4.8813 3.0896 0.62344 3.2386-1.846 3.5649-4.1041 0.91788-6.3515 1.4763-12.663 5.2784-18.394 2.5702-3.8747 1.1622-9.0959 1.92-13.669 0.10913-0.65845-0.42236-1.6425-0.96231-2.154-3.9334-3.7261-12.639-1.6396-14.841 3.8368 5.6612 0.0696 5.3413 3.8951 5.082 7.8698-0.2037 3.1226-0.0601 6.2679-0.10709 10.134m108.48-158.99c1.6473-0.38391 3.2178-2.0688 5.0813-0.27802 0.86648 4.9812-7.5334 4.0508-6.1184 9.6508 7.0353 0.96237 11.906-0.94717 12.108-8.5781 2.1537-0.59723 3.9979 2.483 5.1892-0.66721-5.6791-3.1541-5.6404-4.1376-0.37842-8.3219 2.3665-1.8818 5.4342-3.1616 7.0155-7.1931-9.0637-2.2788-16.086 2.3342-24.001 4.7091 4.2188 7.1088-1.2805 9.7852-6.8299 13.418 4.0013-0.14777 5.629-1.2953 7.9336-2.7398m-177.59 293.47c0.17044 3.2101-2.2437 6.6464 0.77115 10.187 3.0186-3.8341 7.8878-5.9291 6.3173-11.842-0.30411-1.145-0.41251-3.4905 2.5175-3.0494 1.7123 0.25787 1.8926-1.7433 2.0871-2.9081 1.2787-7.6562 0.56442-15.334 0.6752-24.168-4.0134 2.7002-6.537 5.1677-7.4093 8.7056-1.8151 7.3617-3.2902 14.807-4.9589 23.076m34.948-81.628c-3.727-3.0927-5.1896 0.8653-5.3571 2.6435-0.75568 8.0216-7.9136 15.369-2.4186 24.187 0.99576 1.598 0.41809 4.7981 3.1014 4.6591 2.7505-0.14258 3.9525-2.7374 4.1977-5.4217 0.76968-8.4287 2.004-16.847 0.47662-26.068m0.73874 82.296c-3.9326-0.28192-1.6738 3.1881-2.794 4.6105-3.9799 0.0128-8.5824 3.546-9.7606 7.4897-1.1274 3.7737 2.7372 3.4846 4.2047 5.1422 0.76819 0.86774 1.6713 1.6146 2.4923 2.4373 2.5303 2.5354 5.7849 3.3458 9.1343 3.2201 2.9329-0.11011 4.3463-2.0421 2.7585-4.7864-1.8456-3.1896-4.1568-6.1097-6.4929-9.4738 4.2617-2.228 0.42462-5.4014 0.45773-8.6397m186.42 9.7809c-0.88489 0.57025-2.476 0.44672-2.1597 2.3192 2.4936 1.1381 4.4247-0.32684 6.35-1.517 3.7047-2.2902 6.7015-5.4359 9.9718-8.2601 1.9688-1.7002 2.3166-2.9194 0.95355-4.9648-1.2643-1.8972-2.5677-2.5724-5.0029-1.7495-6.5797 2.2235-10.529 8.1845-16.509 11.241-1.0706 0.54718-2.1402 1.971-1.9279 3.8928 3.3358-1.6357 6.5104-3.1925 9.676-4.7449 0.8858 1.762 6e-3 2.5786-1.3516 3.7831m68.69-258.41c0.68402-4.5937 2.2995-9.0782 2.306-14.076-9.9191 3.5375-15.9 14.235-13.762 23.762 2.4853-0.67337 1.9307-5.6723 5.012-4.4377 5.0575 2.0265 5.7549-0.79022 6.4438-5.2483m-153.23-18.94c2.7824-0.76556 5.5682-1.033 8.3294 0.0616 4.482 1.7768 6.5457-0.94244 9.4384-5.5296-3.6824 1.4319-5.9821 0.48703-8.367 0.1329-3.0328-0.45038-3.4869-1.9437-2.2317-4.5579 0.71887-1.4971 2.5947-3.3453 0.38187-4.8104-2.0128-1.3326-4.4223-1.2699-6.5937 0.1763-3.8492 2.5635-4.6302 9.2685-0.95734 14.527m-57.822 81.779c-2.228 3.9345-5.7599 7.3872-5.3574 13.83 6.6837-5.1311 12.271-9.4505 16.552-15.194 1.254-1.6822 2.7382-3.9203 7e-3 -5.5516-2.3047-1.3763-4.9959-2.4463-7.136 0.4006-1.39 1.8491-2.5311 3.8853-4.065 6.5143m255.95 62.4c-2.2438-1.6744-3.8225-0.94418-4.4458 1.5459-1.701 6.7951-1.1684 13.653-0.77374 20.805 8.752-5.1109 12.203-16.375 5.2195-22.35m-246.95-131.77c-2.06 0.0107-2.3266 1.6433-2.5497 3.068-0.91965 5.8722-1.7458 11.759-2.5682 17.646-0.14536 1.0406 0.15802 1.9633 1.6298 2.548 3.8988-2.7794 6.8661-6.7235 10.068-10.42 0.39636-0.45758 0.80206-1.6249 0.67981-1.7098-3.8513-2.6759-2.1203-8.7512-7.2595-11.132m115.07 258.3c1.4193 1.4161 2.7954 3.0232 5.1321 2.0852 3.27-1.3124 8.614-9.9248 8.5383-13.454-0.0573-2.6735-1.8654-3.4617-3.6022-2.4209-3.2408 1.942-7.0833 2.8925-9.7667 5.7652-2.1498 2.3015-3.113 4.7168-0.30145 8.0245m114.41-56.602c-0.4378 0.17035-1.1735 0.24158-1.2682 0.52612-1.2131 3.6476-0.69629 7.7926-3.5982 11.012-0.73895 0.81976 0.28278 3.3339 1.2149 3.4351 5.0945 0.55347 6.6494 4.85 8.9086 8.5092 1.8739-1.7638 1.8802-3.5362 1.9786-5.3862 0.36865-6.9316-4.519-11.843-7.2357-18.096m-247.78-25.991c-2.8254 5.0917-5.1048 11.145-3.9608 16.26 1.0099 4.5156 1.5563 8.7878 1.4901 13.294-0.017 1.1592-0.0814 2.3777 1.6396 3.224 2.3585-1.3369 3.1378-4.1045 2.5244-6.22-1.9489-6.7203 1.4062-13.273 0.084-19.894-0.47589-2.3831 0.2254-5.0216-1.7773-6.6638m-16.14-124.93c7.2048-1.6864 14.025-11.247 12.734-19.024-4.9696 4.6771-9.7194 8.8746-14.102 13.426-1.4623 1.5184-1.9488 3.9368 1.3683 5.5984m160.29-71.515c2.2742 3.2062 4.6714 1.9287 7.1828 0.2851 2.4795-1.6227 4.2667-4.9482 7.2419-4.9689 5.2158-0.0363 4.6362-3.2561 4.863-6.4489-5.7852-1.3533-15.761 4.2038-19.288 11.133m-162.52 263.57c-3.2689 1.6266-5.5949 3.7933-3.6856 7.7718 1.4158 2.95 3.532 5.6968 7.1975 4.642 4.3668-1.2566 3.5535-5.3182 3.5963-8.7012 8e-3 -0.62744-0.38016-1.2517-0.52802-1.8907-1.15-4.97-1.5782-5.1324-6.5802-1.8218m45.545-39.506c1.9773-2.3766 4.7262-4.6979 3.0666-8.1589-1.4883-3.1038-4.3564-1.1013-6.6532-0.96814-2.4789 0.14362-4.8204 0.88525-4.8725 3.7997-0.048 2.6873-1.0995 5.9169 1.5258 7.8903 2.765 2.0784 4.3514-1.0323 6.9333-2.563m237.85-99.22c-1.021 1.9937-2.4431 3.964-0.60974 6.2285 7.1058-2.5281 12.976-12.346 11.042-18.531-4.4257 3.0514-8.5115 6.2217-10.432 12.303m-284.21-26.047c8.1114-8.195 8.7361-11.273 3.6369-19.826-0.9809 2.8795-3.3613 5.1874-2.5746 7.954 0.88254 3.1034-0.29382 4.3912-2.5424 6.0418-3.1129 2.285-2.6094 4.7861 1.4801 5.8303m264.57-28.531c0.95276-3.3209-1.6643-4.574-3.7927-6.6961-2.1486 4.0982-5.9503 6.7395-7.4214 11.007 8.739 4.4972 10.722 3.7961 11.214-4.3107m-54.894 197.92c3.036-1.3749 4.6798-3.7493 5.3807-7.0489-4.935-1.4897-7.6757 2.1191-10.887 4.0858-5.1392 3.1473-5.2396 4.6307-1.5532 9.4131 3.8805-0.17987 3.1188-5.3458 7.0595-6.4501m6.1748-267.51c-2.108-0.3948-2.9872 0.492-3.1476 2.6212-0.18482 2.4548-0.61005 4.8994-1.0602 7.3243-0.60095 3.2372-1.2114 6.4373 1.1164 9.5241 0.97803-0.56018 1.828-1.0448 2.6757-1.5332 0.82916-0.47781 1.8824-0.72565 2.0026-1.9371-2.9178-4.157-2.9039-4.4459-0.55292-9.354 0.70911-1.4805 1.2995-3.0387 1.7504-4.6167 0.53326-1.8664-0.48383-2.3862-2.7844-2.0286m-14.682 61.956c1.1136 0.98202 2.1205 2.1351 3.3631 2.9103 2.5579 1.596 4.0573 0.53342 4.5004-2.2396 0.48749-3.0522-4.7349-9.6036-7.7728-9.7124-1.9706-0.0706-2.9746 1.0178-3.1741 3.0149-0.24084 2.4111 0.893 4.1076 3.0834 6.0267m-85.168-57.99c6.4966-1.4221 11.188-6.0348 16.636-9.4135-7.534 1.3873-15.181 2.3105-21.943 6.5724 1.5659 2.452 3.0514 2.6418 5.3072 2.8411m-100.6 261.66c0.9028-4.2154 1.9004-8.4138 2.6624-12.655 0.31024-1.7266-0.10303-3.4803-2.4082-3.5536-1.8131-0.0575-2.8471 1.1281-2.8693 2.8057-0.0864 6.5137-0.0352 13.029-0.0352 20.202 2.6468-1.9993 2.0562-4.1824 2.6503-6.8m270.12 57.893c4.9523-0.15869 10.025 0.33118 14.648-2.6062-8.4116-3.4075-20.54-2.1266-22.781 2.6241 2.6061 0 5.0662 0 8.1326-0.0179m-143.16-17.617c0.89075-0.65997 1.6545-1.604 0.31415-2.2634-1.7664-0.8689-3.3889-0.30908-5.0096 1.01-6.2365 5.0756-6.4759 4.9612-8.0969-2.3283-1.8054 0.0387-4.1971-1.6937-5.1664 1.0739-0.79715 2.276 1.7083 2.9727 3.0356 4.0027 3.783 2.936 7.6934 4.5086 11.737 0.24353 0.6463-0.68182 1.7503-0.92963 3.1863-1.7385m108.41-219.95c3.1129 2.3709 5.3737 1.5435 7.1766-1.7483 0.92304-1.6854 1.4186-3.1708-0.77344-4.0384-3.1415-1.2433-6.3385-2.4331-8.7769 1.3766-1.4785 2.3098-1.8555 4.0371 2.3737 4.41m3.7644-39.914c-6.3632 1.1012-11.23 5.5982-17.199 7.6325-0.95355 0.32501-1.6707 1.7216-0.95837 2.9839 0.57019 1.0106 1.788 1.3418 2.5699 0.68921 4.8881-4.0797 11.955-4.9762 15.588-11.306m-222.51 16.07c2.3321-3.6952 5.7227-6.8016 7.2006-11.443-3.4651-0.37732-4.5481 1.684-5.8042 3.2938-1.2216 1.5657-2.2089 3.091-4.4713 3.5178-2.2543 0.42532-3.4402 2.1239-2.3247 4.4396 1.1849 2.4597 3.0304 2.0805 5.3996 0.19159m-62.303 129.76c-0.27127 0.97296-0.61905 2.0493 0.6141 2.563 1.3744 0.57245 2.2274-0.28046 2.7123-1.4445 1.0192-2.4465 1.9577-4.9268 2.9276-7.3939 0.48846-1.2425 1.1364-2.5492-0.1344-3.6616-1.273-1.1145-2.8438-0.86267-4.2587-0.40619-1.5165 0.48926-1.8209 1.8109-1.5276 3.2499 0.43948 2.1567 0.2915 4.2876-0.33334 7.0932m78.9-167.25c5.3015 2.7836 8.5097-1.6872 12.638-3.3259-3.999 0.0806-7.8931 0.55454-7.6241-6.3942-2.6756 3.6108-6.0044 5.1767-5.0138 9.7201m150.24 12.309c0.50647 0.94492 0.39069 2.3081 2.0761 2.7713 1.1943-2.3799 1.2725-4.9406 1.2791-7.5201 6e-3 -2.5416-1.7363-3.3275-3.7918-3.7278-1.7431-0.33942-3.4872 4e-3 -4.2689 1.654-1.1492 2.4255 1.344 2.8759 2.5731 4.0051 0.70728 0.64972 1.294 1.4307 2.1324 2.8174m-202.07 240.86c-4.7528 3.2089-2.1259 6.8976-1.2459 10.791 6.6255-3.3179 7.082-6.9539 1.2459-10.791m110.07 1.0518c-1.19 1.1339-2.5076 2.1651-3.5292 3.4345-0.80472 0.99994-0.52335 2.2308 0.38507 3.1581 0.82938 0.84662 2.002 1.8154 3.0054 0.80151 2.4226-2.4479 5.7872-4.4288 5.5828-8.5459-2.0855-1.1971-3.4118 0.0462-5.4441 1.1518m-72.987-108.75c0.25964 1.9928-1.3609 4.9627 1.3386 5.7113 3.3068 0.91699 2.8557-2.8454 4.0474-4.5618 0.37427-0.539 0.62009-1.1676 0.92111-1.757 0.54224-1.0617 1.0401-2.1423-5e-3 -3.1822-1.0333-1.0284-2.1586-0.41507-3.2476-0.0972-1.5896 0.46408-2.3946 1.6721-3.0549 3.8869m-72.206 54.674c-0.52866-1.2375 0.0871-3.113-2.3778-3.6511-3.064 5.3605-0.78812 10.495 0.44305 15.677 2.1224-3.5999 1.6764-7.5406 1.9348-12.026m193.21 74.073c3.5792 1.7706 4.796-1.7365 6.1682-3.3843 1.9097-2.2933-1.3889-3.8048-1.8558-5.9166-4.6956 2.2198-5.2173 3.2621-4.3123 9.3009m-184.42-71.782c1.2445-5.3628-3.885-8.758-3.7102-13.791-3.1739 5.3378-1.6465 11.16 3.7102 13.791m224.92-223.55c-2.1054-1.3644-4.1592-1.706-6.1979 0.13766 0.67132 3.1498 1.3029 6.1129 2.1345 10.015 1.9396-3.6471 4.8304-5.7811 4.0634-10.152m-4.5183 46.822c-0.94281-0.7793-1.23-2.431-3.3738-2.1765-1.2468 3.7673-1.196 7.3954 1.2793 10.895 3.3827-2.1375 3.7297-3.3312 2.0945-8.7184m-160.42 203.51c5.314-3.7579 5.5531-5.3192 1.0525-10.335-2.8216 3.2113-4.2571 6.3168-1.0525 10.335m-27.848 1.9038c0.80396-2.2474-0.16168-3.9332-1.9266-5.113-1.028-0.68713-2.4436-0.52094-3.1078 0.62775-1.295 2.2396-1.492 4.5971-0.21994 6.8762 2.129 0.11096 3.4684-0.87854 5.2543-2.3909m24.134-215.67c-1.006 3.975-3.2106 7.685-3.0667 12.455 4.8906-5.3181 6.1236-9.5187 4.8561-15.674-0.51523 0.88754-1.0112 1.7419-1.7894 3.2191m98.393 242.22c1.5484-0.57916 4.2189-0.31586 3.4738-2.978-0.61429-2.1949-2.7417-1.7768-4.5872-1.2996-2.8109 0.72681-4.805 2.2031-5.7909 5.7943 2.4488-0.5307 4.3169-0.93555 6.9043-1.5167m-116.42-111c0.16156-0.97363 0.45209-1.9468 0.45612-2.9211 7e-3 -1.7039-0.85056-2.8512-2.6453-2.929-1.5279-0.0662-2.5408 0.80737-2.75 2.2856-0.31409 2.2186 3e-3 4.3024 2.1227 5.6381 1.663 1.048 2.4006 0.23413 2.8165-2.0736m21.04 43.98c-1.1542-2.3022-2.7262-2.4713-4.9176-0.98041 0.81552 3.2197 1.595 6.2972 2.5289 9.9842 2.7263-2.7812 2.6411-5.5462 2.3887-9.0038m-63.164-68.112c0.426 1.4477 0.91922 2.8326 2.7382 2.9922 3.2586-4.7588 2.2836-7.5621-2.9048-8.3752-1.2645 1.5533-0.23498 3.1186 0.16663 5.383m313.46 108.94c0.0409-3.7195 0.0147-7.429-1.5341-11.661-3.7241 5.1052 1.4573 9.9837-1.9562 14.351 2.5229 0.15503 2.9785-0.9176 3.4902-2.6902m-253.16-51.128c3.038-1.3617 3.5417-7.1696 0.69913-10.681-3.4572 3.1552-1.4331 6.7047-0.69913 10.681m229.59-104.07c-0.53973 1.7265 0.40741 3.0319 1.862 2.5029 2.5942-0.9436 5.7147-1.6571 6.8638-5.8865-3.4366 0.35114-6.3544-0.0233-8.7258 3.3837m-92.419 206.2c1.8008-0.9339 2.5757-2.2772 0.92224-3.8585-1.8456-1.7651-3.7216-0.12811-5.4742 0.47351-1.2239 0.4201-1.7198 1.5145-0.94153 2.7974 1.2877 2.1226 2.9458 2.4367 5.4935 0.58758m98.277-197.89c1.3402-2.3617 4.7148-3.4985 4.5643-7.1101-5.1091 1.8708-7.5681 4.9065-7.4572 8.9041 1.2312 0.32928 1.7269-0.71262 2.8929-1.7939m-17.468-72.35c-4.2081 1.1663-5.6935 4.4067-6.8398 8.545 3.9532-0.87833 5.4712-3.8344 7.5483-6.0954 0.73474-0.7998 1.9943-1.7966-0.70856-2.4496m-61.475 248.05c-2.0938 1.7703-4.2589 3.4821-5.5842 6.6187 3.6373 1.2239 5.4802-1.1046 7.2029-2.9735 1.2679-1.3755 1.1368-3.0557-1.6188-3.6452m102.79-44.713c2.769-3.7234 0.93774-5.7499-2.7908-7.5728-1.3809 3.5261-2.433 6.4794 2.7908 7.5728m-165.7-263.77c-3.4218-1.3048-8.4554 1.34-10.53 6.2998 3.9048-2.1803 7.1061-3.9677 10.53-6.2998m-108.88 70.03c-0.53903 1.1133-1.6536 2.0523-1.0107 3.8571 1.1648-0.8074 2.2547-1.4661 3.2324-2.2625 1.5832-1.2897 4.015-1.9234 3.9422-4.5624-0.0134-0.48386-0.73346-1.3063-1.1988-1.3607-2.7731-0.32352-3.1684 2.3647-4.9651 4.3284m286.4 112.08c-2.0362 0.29065-3.6157 1.5616-3.4438 3.4685 0.20758 2.3033 2.4082 2.6786 4.4846 2.8797 1.5233-2.2419 1.628-4.2609-1.0407-6.3482m-69.721-153.04c-0.64697-0.0769-1.3282-0.0499-1.9348-0.24951-2.1109-0.69498-3.6174-0.27862-3.7939 2.171-0.15735 2.1841 1.6973 2.5378 2.985 2.0416 1.533-0.59073 5.5195 0.3786 2.7438-3.9631m-169.57 63.899c-0.89221 1.0737-2.295 2.0107-0.81549 3.9726 2.2436-0.98004 5.1233-0.9578 6.0549-4.0965-1.7059-1.5115-3.2038-1.0161-5.2394 0.12393m156.72 170.06c-0.8161 1.3401-2.3491 2.3432-2.0661 4.2529 5.3992-1.2568 6.5864-3.2418 4.48-7.4169-1.3996 0.33032-1.2744 1.8334-2.4139 3.164m21.75-241.44c0.82788 1.2658 1.8953 2.7914 3.443 2.1086 1.6043-0.70767 2.7714-2.273 1.7867-4.7075-2.1197-0.35187-4.0955-0.41937-5.2297 2.5989m-263.54 159.35c0.18677 1.5835 0.91431 2.5522 2.6108 1.8622 1.3212-0.53748 2.0188-1.6758 1.9769-3.1364-0.0356-1.2403-0.46014-2.4372-1.8742-2.4604-1.9089-0.0312-2.2258 1.6196-2.7135 3.7346m259.18-153.62c0.78601-0.017 1.6403 0.2493 2.4456-0.78549-2.2709-2.6976-4.7036-4.5833-8.758-2.7545 1.8214 1.6639 3.6352 2.7303 6.3124 3.54m-76.374 211.21c-0.88202-0.17181-1.7447-1.0243-2.7529-9e-3 0.7467 2.2539 1.994 4.0442 4.5302 4.4556 0.91736 0.14874 1.5897-0.58124 1.6501-1.4362 0.1358-1.921-1.4527-2.2871-3.4274-3.0101m-116.29-203.47c-0.19501 0.86139-1.3375 1.5909-0.079 2.9674 1.7824-3.2558 4.1848-6.0262 3.8537-10.513-2.219 2.2259-2.9384 4.5432-3.7747 7.5452m3.3312 65.065c3.5847 1.6899 4.4207-0.68192 5.4303-3.482-3.3837-1.1794-4.8787 0.28964-5.4303 3.482m176.68 12.535c1.0294-0.92181 1.3663-2.0349 0.2182-2.965-1.4133-1.1449-2.9728-1.3545-4.4087 0.23883 0.16821 2.2987 1.4374 3.1977 4.1905 2.7262m-204.3-10.853c3.4405 0.41907 3.7604-1.8404 4.0879-4.6271-3.3208-0.13489-4.6905 1.2-4.0879 4.6271m226.1-14.617c-0.57922 0.6268-1.0768 1.3333-0.53394 2.1689 0.56982 0.87729 1.4047 0.71774 2.1405 0.20752 1.5211-1.0546 3.0076-2.1588 4.5084-3.2427-2.9256-1.3948-4.1561-0.13727-6.115 0.86624m29.596 50.648c-1.0847 2.1947-2.6575 4.42 0.49243 6.7314 0.97607-2.5177 2.1792-4.6558-0.49243-6.7314m-186.6-137.97c-0.86859 1.249-3.0022 1.6896-2.4381 4.1154 2.946 0.53845 4.1589-1.589 4.8452-3.6713 0.4248-1.2888-0.89102-1.4019-2.4071-0.44409m-105.98 192.09c0.57629-1.623 0.78497-3.172-0.85886-4.3932-1.6755 0.23404-3.0032 1.0529-2.6267 2.8042 0.27969 1.301 1.0402 2.9186 3.4855 1.589m256.13-95.542c-0.27045-2.437-1.3984-2.3428-2.8806-0.93359-0.85144 0.80957-1.8702 1.9391-0.74652 2.9447 1.7588 1.574 2.9699 0.5932 3.6271-2.0111m30.089 172.87c0.088 1.4186-0.0543 2.9597 2.1071 3.5723 1.1939-3.2024-0.94757-5.4609-1.672-8.509-1.2067 1.7831-0.16931 3.0519-0.43506 4.9367m-213.89 30.133c1.6985-0.21094 3.2431-0.58478 3.0852-2.83-4.4179-0.69299-4.8219-0.38519-3.0852 2.83m127.04-15.849c-2.7477 0.0419-3.6315 1.4403-3.1742 4.3118 2.3336-0.60346 4.215-1.0777 3.1742-4.3118m37.217-234.49c0.98456-0.5527 2.0693-1.0301 1.8673-2.6071-1.4843-0.81177-3.1592-1.1564-4.1622 0.4512-0.78516 1.2586 0.38196 2.0068 2.2949 2.1559m-167.19 12.22c-0.44601 0.63779-1.2283 1.1827-0.40192 2.4178 2.377-1.4115 3.8774-3.3652 4.9096-6.3554-2.8305 0.0623-3.0149 2.307-4.5077 3.9376z" style="paint-order:stroke fill markers"/><path d="m390.8 341.19c3.865 1.3321 5.283-3.2339 8.2824-3.5459 1.4408 1.8488 0.24274 2.9987-0.87405 3.8794-7.917 6.2436-10.041 17.392-19.332 23.647-0.32584-4.0154 2.2258-5.3729 3.7188-6.9982 4.412-4.8029 3.8724-11.866 8.2053-16.982z" style="paint-order:stroke fill markers"/><path d="m363.24 373.85c-2.1675 2.5937-3.2723 5.853-7.3649 7.5457 1.0652-4.078 3.0257-6.4727 5.3444-8.5678 0.681-0.61533 1.8795-0.80066 2.0205 1.0222z" style="paint-order:stroke fill markers"/><path d="m495.03 439.07c-1.5432-2.8682-3.1137-4.1517-5.9176-1.8452-1.1572 0.95196-2.7791 1.3456-4.2715 1.0008-7.386-1.7067-12.198 2.4832-16.669 7.273-2.0272 2.1715-3.6216 3.6128-7.1917 2.6641-3.2677-0.86841-5.6965 1.7632-6.6318 5.1351-0.56757 2.0462-0.70322 4.285-2.9149 5.743-2.3063-1.2068-1.8804-3.2829-1.3916-5.096 2.2103-8.198 6.0851-15.735 9.7345-23.333 1.7361-3.6142 12.287-4.0054 14.838-1.3795 5.6239 0.0241 10.916-3.3022 15.796 1.3416 0.29144 0.2774 1.0154 0.42526 1.3657 0.26245 2.0664-0.95984 3.7051-1.1353 5.9279 0.35669 4.6041 3.0903 7.2744 7.245 8.6017 12.431 0.30075 1.175-0.0493 2.3396-1.3257 2.921-1.2343 0.56216-2.3184 0.35172-2.9757-0.88464-1.5306-2.8794-4.6163-4.0944-6.974-6.5898z" style="paint-order:stroke fill markers"/><path d="m581.32 442.66c1.0707 1.9529 2.2014 3.3068 3.8795 4.2558 2.4472 1.384 1.8271 3.6061 1.3842 5.7695-0.25079 1.2248-0.58954 2.3514-2.0619 2.3923-2.2671 0.063-3.7363-1.1862-4.6257-3.1672-0.40765-0.90805-0.60419-2.1125-1.693-2.3115-7.1566-1.3077-13.01-6.4808-20.244-7.175-5.931-0.56912-11.017 1.8749-14.848 6.693-2.4632 3.0981-5.0005 6.3142-9.8358 5.1271-1.1892-3.9754 3.4335-5.1821 3.6733-8.1167-0.50909-2.6578-2.9598-0.86945-4.2042-2.1257 2.3378-3.4333 6.3058-3.3726 9.5587-4.7014 2.1721-0.8873 4.5541-1.4206 4.0342-4.7027-0.23248-1.4675 0.71906-2.6693 2.1232-3.0118 4.4975-1.0971 8.7526-3.2182 13.477-3.3273 1.5071-0.0348 3.3405 0.1416 4.0784 1.48 1.6132 2.9265 3.325 4.6851 7.0126 3.2666 1.3063-0.50247 3.0015 0.99856 2.7232 2.2344-1.0574 4.6953 2.6708 5.4467 5.5676 7.4207m-21.296-7.3579c-4.0311-1.908-5.1545-1.2842-5.3489 3.0458 2.1588 0.0397 3.6497-1.2752 5.3489-3.0458z" style="paint-order:stroke fill markers"/><path d="m542.59 401.63c-3.1035 0.94501-5.9097 0.8378-8.3599-0.80334-2.6288-1.7607-3.8691-3.9874-0.62378-7.3826 0.51502 4.907 3.5894 6.0771 7.3889 6.3287 0.92865 0.0615 2.0696 0.16928 1.5948 1.8573z" style="paint-order:stroke fill markers"/><path d="m526.71 578.7c4.2042-2.2779 7.7565-5.2404 12.737-2.4852 2.012 1.113 3.9601-1.1251 5.9246-1.8978 2.2827-0.89789 4.9108-2.4227 6.8976-0.0553 2.1611 2.5751-0.4397 4.5607-1.773 6.5081-1.1172 1.6316-2.5568 3.0392-3.7268 4.6388-1.2641 1.728-3.0218 2.4407-4.7722 1.4913-4.3893-2.3809-8.9619-1.6403-13.545-1.3216-3.3296 0.23157-5.9502-0.92236-7.8664-3.6718 1.4772-2.3241 4.1595-1.6412 6.1238-3.2064z" style="paint-order:stroke fill markers"/><path d="m460.44 508.48c0.11887-3.3847 0.41467-5.9038 4.2726-7.1291 2.5391-0.8064 3.778-4.241 6.2688-5.9485 2.8517-1.9549 5.5861-3.2041 8.5858-0.78684 1.9396 1.563 3.8221 1.1733 5.5665 0.20666 4.5493-2.5208 8.5258-0.78183 12.589 1.0757-2.1014 7.0605-6.4266 9.6836-13.482 7.8467-1.0743-0.27976-2.4879 0.68524-3.7298 1.1168-6.4754 2.25-13.023 4.1283-20.071 3.6186z" style="paint-order:stroke fill markers"/><path d="m489.66 521.52c-0.0806 6.0888-2.1287 8.399-8.814 9.4881-4.2766 0.69678-6.7593-2.6219-8.7473-5.5411-1.7904-2.6289-0.32754-5.3614 2.4195-6.5888 3.8914-1.7389 6.6149-7.7617 12.084-3.9565 1.8582 1.293 2.2266 4.0061 3.0582 6.5983z" style="paint-order:stroke fill markers"/><path d="m581.82 494.17c8.7956 4.0324 0.67664 6.8566-0.44269 10.515-8.7477-2.854-18.031 5.7993-26.822-1.8074-0.29828-1.8691 1.5037-2.7951 2.9499-3.7451 3.8763-2.5463 7.8929-4.8345 12.282-6.4605 2.3136-0.85706 4.1787-1.628 6.0552 0.96152 1.4096 1.9452 3.6837 0.68845 5.9774 0.53638z" style="paint-order:stroke fill markers"/><path d="m560.69 533.09c1.6455-3.5779 12.626-9.8134 15.66-9.2884 1.4822 0.25653 2.3571 0.96417 2.2541 2.6613-0.30646 5.0516-8.5524 11.676-13.612 10.965-2.4031-0.33813-4.0682-1.3056-4.3019-4.3375z" style="paint-order:stroke fill markers"/></g>
</svg>
