<svg version="1.1" viewBox="0 0 24 24" xmlns="http://www.w3.org/2000/svg">
 <title>Svelte</title>
 <path d="m20.129 3.7357c-2.0717-2.9785-6.1995-3.8528-9.1668-1.9696l-5.2309 3.3478c-1.4264 0.89333-2.4151 2.3579-2.7013 4.0133-0.2469 1.3883-0.038157 2.8147 0.62735 4.0514-0.45677 0.68459-0.7609 1.4455-0.89445 2.2446-0.30414 1.6924 0.095394 3.4431 1.0841 4.8314 2.093 2.9864 6.2017 3.8618 9.169 1.9786l5.2309-3.3287c1.4264-0.89446 2.4163-2.359 2.7013-4.0144 0.2469-1.3883 0.03816-2.8147-0.62735-4.0514 0.45677-0.68459 0.7609-1.4455 0.89445-2.2446 0.32322-1.7115-0.076315-3.4622-1.0864-4.8583m-9.6808 16.748c-1.6879 0.43656-3.4521-0.22782-4.4386-1.652-0.60715-0.83497-0.83497-1.8787-0.66439-2.9033 0.038157-0.17059 0.076315-0.32209 0.11335-0.4938l0.095394-0.30414 0.26598 0.18966c0.62623 0.45564 1.3097 0.79682 2.0493 1.0246l0.18966 0.05724-0.019079 0.18966c-0.019079 0.26598 0.057236 0.55104 0.20874 0.77774 0.30414 0.43657 0.83497 0.64531 1.3479 0.51288 0.11335-0.03816 0.22782-0.07632 0.32209-0.13243l5.1905-3.3231c0.26598-0.17059 0.43657-0.41749 0.4938-0.7205 0.05724-0.30414-0.01908-0.62623-0.18966-0.87313-0.30414-0.43656-0.83497-0.62623-1.3479-0.4938-0.11335 0.03816-0.22782 0.07631-0.32209 0.13243l-1.992 1.2715c-0.32209 0.20874-0.68347 0.36025-1.0628 0.45564-1.6879 0.43657-3.4521-0.22782-4.4386-1.652-0.58807-0.83497-0.83497-1.8787-0.64531-2.9033 0.17059-0.9876 0.77774-1.8787 1.6318-2.4106l5.2186-3.3208c0.32209-0.20874 0.68347-0.36025 1.0628-0.47472 1.6879-0.43657 3.4521 0.22782 4.4386 1.652 0.60715 0.83497 0.83497 1.8787 0.66439 2.9033-0.03816 0.17059-0.07632 0.32209-0.13243 0.4938l-0.095393 0.30414-0.26598-0.18966c-0.62623-0.45564-1.3097-0.79682-2.0493-1.0246l-0.18966-0.057236 0.019079-0.18966c0.019079-0.26598-0.057236-0.55104-0.20874-0.77774-0.30414-0.43657-0.83497-0.62623-1.3479-0.4938-0.11335 0.038157-0.22782 0.076315-0.32209 0.13243l-5.1905 3.3208c-0.26598 0.17059-0.43657 0.41749-0.4938 0.7205-0.057236 0.30302 0.019079 0.62623 0.18966 0.87313 0.30414 0.43656 0.83497 0.62623 1.3479 0.4938 0.11335-0.03816 0.22782-0.07632 0.32209-0.13243l1.992-1.2715c0.32209-0.20874 0.68347-0.36025 1.0628-0.47472 1.6879-0.43657 3.4521 0.22782 4.4386 1.652 0.60715 0.83497 0.83497 1.8787 0.66439 2.9033-0.17059 0.9876-0.77774 1.8787-1.6318 2.4106l-5.2186 3.3208c-0.37933 0.2469-0.7407 0.39841-1.1223 0.51288" fill="currentColor" fill-rule="evenodd" style="stroke-width:1.1223"/>
</svg>
