<?xml version="1.0" encoding="UTF-8" standalone="no"?>
<svg
   xmlns:dc="http://purl.org/dc/elements/1.1/"
   xmlns:cc="http://creativecommons.org/ns#"
   xmlns:rdf="http://www.w3.org/1999/02/22-rdf-syntax-ns#"
   xmlns:svg="http://www.w3.org/2000/svg"
   xmlns="http://www.w3.org/2000/svg"
   id="svg4"
   version="1.1"
   viewBox="0 0 24 24"
   height="24"
   width="24">
  <metadata
     id="metadata10">
    <rdf:RDF>
      <cc:Work
         rdf:about="">
        <dc:format>image/svg+xml</dc:format>
        <dc:type
           rdf:resource="http://purl.org/dc/dcmitype/StillImage" />
        <dc:title></dc:title>
      </cc:Work>
    </rdf:RDF>
  </metadata>
  <defs
     id="defs8" />
  <path
     style="stroke-width:0.631061"
     id="path2"
     d="M 9.9481058,2.4785549 C 9.0280192,2.6855429 8.1142432,2.9714134 7.2560005,3.4024279 7.2755634,4.1584388 7.3247862,4.8816344 7.4238627,5.614296 7.0919247,5.8282256 6.7435792,6.0118643 6.4343594,6.2617644 6.118829,6.5015675 5.796988,6.7350599 5.5104864,7.0177752 4.9387453,6.6429251 4.3373444,6.2882689 3.7125942,5.9758938 3.0417766,6.6959342 2.4176575,7.4746632 1.904605,8.3455271 2.2889211,8.9702773 2.693431,9.5514842 3.1276009,10.107449 h 0.010097 v 5.347609 c 0.010097,0 0.019563,0 0.02966,0.0032 l 3.280254,0.315531 c 0.1710174,0.01641 0.3054334,0.154609 0.3155304,0.328782 l 0.1016007,1.446392 2.8593365,0.203832 0.197522,-1.334693 c 0.026504,-0.174173 0.1741725,-0.302279 0.3483455,-0.302279 h 3.460737 c 0.174173,0 0.321841,0.128106 0.348346,0.302279 l 0.197522,1.334693 2.859336,-0.203832 0.101601,-1.446392 c 0.0101,-0.174173 0.144513,-0.312375 0.318686,-0.328782 l 3.277098,-0.315531 c 0.0101,0 0.01956,-0.0032 0.02966,-0.0032 v -5.347609 h 0.01325 C 21.310355,9.5552706 21.711079,8.9702773 22.095395,8.3455271 21.586129,7.4746632 20.958223,6.6953031 20.287406,5.9758938 19.666442,6.2882689 19.061255,6.6429251 18.489514,7.0177752 18.203643,6.7350599 17.884957,6.5015675 17.569427,6.2617644 17.257052,6.0118643 16.908706,5.8275945 16.576768,5.614296 16.675214,4.8816344 16.724437,4.1584388 16.744631,3.4024279 15.890174,2.9720445 14.976398,2.6861739 14.052525,2.4785549 13.684617,3.0995188 13.348892,3.7703364 13.056711,4.4241153 12.708366,4.3679509 12.356865,4.3452327 12.008519,4.3420774 h -0.01641 c -0.348346,0.00316 -0.699847,0.026505 -1.048192,0.082038 C 10.651108,3.7703364 10.316014,3.0995188 9.9449505,2.4785549 Z M 7.354446,10.307495 c 1.0911041,0 1.9752203,0.887271 1.9752203,1.978376 0,1.091104 -0.8841162,1.97522 -1.9752203,1.97522 -1.0911041,0 -1.9752203,-0.884116 -1.9752203,-1.97522 0,-1.091105 0.8841162,-1.978376 1.9752203,-1.978376 z m 9.295525,0 c 1.091105,0 1.975221,0.887271 1.975221,1.978376 0,1.091104 -0.884116,1.97522 -1.975221,1.97522 -1.091104,0 -1.97522,-0.884116 -1.97522,-1.97522 0,-1.091105 0.884116,-1.978376 1.97522,-1.978376 z m -9.1080999,0.785671 c -0.7231957,0 -1.3113444,0.584993 -1.3113444,1.311344 0,0.723196 0.5881487,1.308189 1.3113444,1.308189 0.7263509,0 1.3144996,-0.584993 1.3144996,-1.308189 0,-0.726351 -0.5881487,-1.311344 -1.3144996,-1.311344 z m 8.9175199,0 c -0.723196,0 -1.311344,0.584993 -1.311344,1.311344 0,0.723196 0.588148,1.308189 1.311344,1.308189 0.726351,0 1.311344,-0.584993 1.311344,-1.308189 0,-0.726351 -0.584993,-1.311344 -1.311344,-1.311344 z m -4.457182,0.38116 c 0.351501,0 0.637371,0.256211 0.637371,0.574897 v 1.82061 c 0,0.318686 -0.28587,0.578683 -0.637371,0.578683 -0.351501,0 -0.637372,-0.259366 -0.637372,-0.578683 v -1.82061 c 0,-0.318686 0.285871,-0.574897 0.637372,-0.574897 z m -8.8676665,4.686889 c 0,0.318686 0.00316,0.663876 0.00316,0.732661 0,3.116179 3.9504406,4.611162 8.8575695,4.627569 h 0.01325 c 4.907129,-0.01641 8.854414,-1.512021 8.854414,-4.627569 0,-0.06878 0.0032,-0.413975 0.0063,-0.732661 l -2.948316,0.28587 -0.101601,1.455858 c -0.01325,0.174172 -0.151455,0.31553 -0.325627,0.325627 l -3.520057,0.2499 c -0.171018,0 -0.321841,-0.12495 -0.348346,-0.299123 L 13.42462,16.81878 h -2.849871 l -0.200677,1.360567 c -0.02651,0.180484 -0.187425,0.312375 -0.3748502,0.299123 L 6.5088246,18.22857 C 6.3346518,18.215318 6.1932942,18.077115 6.1800419,17.902943 L 6.0815964,16.447085 3.1332804,16.16437 Z" />
</svg>
