<svg xmlns:dc="http://purl.org/dc/elements/1.1/" xmlns:cc="http://creativecommons.org/ns#" xmlns:rdf="http://www.w3.org/1999/02/22-rdf-syntax-ns#" xmlns:svg="http://www.w3.org/2000/svg" xmlns="http://www.w3.org/2000/svg" role="img" viewBox="0 0 24 24" version="1.1" id="svg863">
    <metadata id="metadata869">
        <rdf:RDF>
            <cc:Work rdf:about="">
                <dc:format>image/svg+xml</dc:format>
                <dc:type rdf:resource="http://purl.org/dc/dcmitype/StillImage" />
                <dc:title />
            </cc:Work>
        </rdf:RDF>
    </metadata>
    <defs id="defs867" />
    <path d="M 11.790626,1.786625 A 3.4027556,3.4027556 0 0 0 10.046692,2.2938893 L 4.6208377,5.6438758 A 3.6189387,3.6189387 0 0 0 2.9041398,8.7206545 v 6.8344495 c 0,1.253691 0.6723804,2.415462 1.7592536,3.041883 l 5.5203286,3.17721 a 3.3023241,3.3023241 0 0 0 3.264024,0.01532 l 5.994399,-3.37552 A 3.2487039,3.2487039 0 0 0 21.09586,15.585744 V 8.3844643 A 3.0384786,3.0384786 0 0 0 19.585983,5.7596273 L 13.546475,2.247078 A 3.4027556,3.4027556 0 0 0 11.790626,1.7874762 Z m 0.01872,1.4247656 c 0.351511,-0.00511 0.704723,0.085112 1.021338,0.2681011 l 6.038657,3.5125494 c 0.497051,0.2893789 0.800898,0.8170698 0.800047,1.3915721 v 7.2021308 c 0,0.658762 -0.352361,1.263054 -0.926863,1.586477 l -5.993548,3.37552 a 1.8716007,1.8716007 0 0 1 -1.854579,-0.0085 L 5.3749251,17.361169 A 2.0826771,2.0826771 0 0 1 4.3297565,15.554253 V 8.7198034 c 0,-0.7600452 0.3923638,-1.4639169 1.0392108,-1.8639407 L 10.795673,3.5067274 A 1.9771389,1.9771389 0 0 1 11.808499,3.2113906 Z M 7.8091124,6.4830746 V 17.421598 H 10.09861 v -4.783264 h 3.795971 v 4.783264 h 2.294604 V 6.4830746 H 13.894581 V 10.467141 H 10.09861 V 6.4830746 Z" id="path861" style="stroke-width:0.851114" />
</svg>