<?xml version="1.0" encoding="UTF-8"?>
<svg width="512" height="512" version="1.1" viewBox="0 0 512 512" xmlns="http://www.w3.org/2000/svg" xmlns:xlink="http://www.w3.org/1999/xlink">
 <defs>
  <linearGradient id="b" x1=".39744" x2="23.603" y1="12" y2="12" gradientTransform="translate(-1.65,-1.65)" gradientUnits="userSpaceOnUse">
   <stop id="c" stop-color="#0080ff" offset="0"/>
   <stop id="d" stop-color="#06f" offset="1"/>
  </linearGradient>
  <linearGradient id="a" x1=".74332" x2="511.32" y1="322.59" y2="322.59" gradientUnits="userSpaceOnUse" xlink:href="#b"/>
 </defs>
 <g transform="translate(0 -263.13)">
  <g transform="translate(-.48448 .028373)">
   <g transform="translate(-.3048)">
    <g transform="translate(.045948)">
     <g transform="matrix(15.118 0 0 15.118 -10.495 -3714.2)">
      <g>
       <path d="m0.74334 263.1h33.867v33.867h-33.867z" fill="rgb(var(--color-bg-element))" stroke-width=".55146"/>
       <path d="m0.74334 263.08h13.546v33.892h-13.546z" fill="url(#a)"/>
       <g fill="rgb(var(--color-bg-element))" aria-label="J">
        <path d="m12.353 282.71v-19.678h5.898v19.678q-0.01378 2.7423-1.2265 4.7405-1.2127 1.9982-3.39 3.1006-2.1635 1.0886-5.0161 1.0886-2.5632 0-4.6302-0.90951-2.0671-0.9095-3.2797-2.7423-1.2127-1.8466-1.1989-4.6716h5.9394q0.027561 1.6812 0.96463 2.6183 0.95085 0.92328 2.508 0.92328 3.4038 0 3.4313-4.1479z" fill="rgb(var(--color-bg-element))" stroke-width=".26458"/>
       </g>
       <g fill="url(#a)" aria-label="A">
        <path d="m17.128 297h-6.6219l10.09-29.228h7.9634l10.076 29.228h-6.6219l-2.1692-6.6647h-10.547zm3.7391-11.488h7.4211l-3.5964-11.06h-0.22834z" fill="url(#a)" stroke-width=".27401"/>
       </g>
      </g>
     </g>
    </g>
   </g>
  </g>
 </g>
</svg>
