<svg xmlns="http://www.w3.org/2000/svg" xmlns:xlink="http://www.w3.org/1999/xlink" version="1.1" id="mdi-open-source-initiative" width="24" height="24" viewBox="0 0 24 24">
    <path d="m15.41 22h-0.19c-0.12-0.05-0.22-0.15-0.26-0.27l-2.22-5.8c-0.09-0.24 0.03-0.51 0.26-0.61 0.71-0.26 1.28-0.82 1.58-1.49 0.64-1.43 0-3.1-1.43-3.74s-3.1 0-3.74 1.41c-0.3 0.71-0.32 1.5-0.05 2.19 0.3 0.74 0.89 1.31 1.64 1.59 0.24 0.09 0.37 0.36 0.28 0.61l-2.28 5.8c-0.04 0.12-0.13 0.22-0.25 0.27-0.12 0.04-0.25 0.04-0.36 0-5.15-1.99-7.72-7.78-5.73-12.93s7.78-7.72 12.93-5.73c2.47 0.96 4.46 2.85 5.54 5.27 1.09 2.43 1.16 5.18 0.2 7.65-1.01 2.66-3.1 4.78-5.75 5.78h-0.17" />
</svg>