<svg xmlns="http://www.w3.org/2000/svg" xmlns:xlink="http://www.w3.org/1999/xlink" version="1.1" id="uu-icon" width="24" height="24" viewBox="0 0 24 24">
    <path d="m15.428 21.484-0.30839-0.69262-0.25784 0.82912zm-0.82912-0.06067 0.15672-0.58645-0.30839 0.091zm-1.6431-5.5409 0.40445 6.0212a3.0334 3.0334 0 0 0 0.30839-0.0455l-0.05056-0.30839c0.19211-0.03033 0.38423-0.07078 0.59656-0.12133l-0.08089-0.24267c-0.19211 0.0455-0.35895 0.08089-0.5359 0.11122l-0.0455-0.28311c0.16684 0 0.32862-0.06067 0.50556-0.10111l-0.06572-0.24772c-0.19717 0.0455-0.37412 0.08089-0.55106 0.11122l-0.05056-0.31345a8.4226 8.4226 0 0 0 0.85945-0.19211l0.11122 0.37412c0.15167-0.04045 0.30334-0.091 0.455-0.14156l0.05561-0.20728zm-9.0243 2.088 0.69767-0.89484h-0.00506l-1.092 0.31851zm-0.71284-1.178c0.050556 0.091 0.10111 0.182 0.15672 0.273l1.4408-0.37412a3.8726 3.8726 0 0 0 0.2275 0.33367l-0.84934 1.2235 0.21234 0.26289 4.2973-4.2366zm-0.71284-6.1274c-0.11628 0-0.19211 0.05056-0.20728 0.19717v0.16684l0.35895 0.03539v-0.16178c0-0.05561 0-0.22245-0.15167-0.23761m-0.25278-0.8999a9.4135 9.4135 0 0 0-0.16684 0.93023c0.050556-0.23761 0.18706-0.41962 0.41456-0.40445a0.364 0.364 0 0 1 0.35389 0.38423 0.63195 0.63195 0 0 1 0.19211-0.14156 4.9444 4.9444 0 0 1 0.50556-0.21739c-0.030334 0.13145-0.050556 0.25278-0.070779 0.38423 0 0-0.2275 0.06067-0.32861 0.10111-0.10111 0.04045-0.25278 0.12133-0.26795 0.22245v0.05056l0.55612 0.05561c0 0.11628 0 0.2275-0.025278 0.34378l-1.4156-0.080892v0.44489l6.0263-0.3185zm0.64712-1.2184 0.46512 0.35389c0.035389-0.10617 0.075834-0.20728 0.11628-0.31345zm0.16684-1.0516c-0.12133 0.24267-0.23256 0.50556-0.33367 0.73812l1.5167 0.0455c-0.055612 0.11628-0.11122 0.23761-0.16178 0.35895h-0.33873c-0.060667 0.15167-0.12133 0.30839-0.17695 0.47017l0.26289 0.21234c-0.040445 0.12133-0.075834 0.24267-0.11122 0.364l-1.1628-1.0111c-0.055612 0.23256-0.16178 0.50556-0.23761 0.79879l5.9302 1.1274zm2.093-2.8362 1.0516 0.35389-0.60667-0.74823zm1.0263-0.79373-0.26795 0.19717 0.84429 1.1375-0.29828 0.2275-1.0415-0.32861 0.65723 0.68756-0.21739 0.21739-1.0111-1.0111-0.2275 0.23761 4.727 3.7563zm1.7088 0.32356a0.39939 0.39939 0 0 0 0.13145-0.58645 0.39434 0.39434 0 1 0-0.68756 0.35895 0.39434 0.39434 0 0 0 0.55612 0.2275m0.40445-1.4813c-0.23761 0.096057-0.47523 0.20222-0.70779 0.31345a0.7179 0.7179 0 0 1 0.77351 0.38423 0.73306 0.73306 0 0 1-0.33367 1.0111 0.72801 0.72801 0 0 1-1.0111-0.31345 0.72295 0.72295 0 0 1 0.10617-0.85945c-0.22245 0.12639-0.43984 0.25784-0.65217 0.39939l3.6653 4.818zm13.615 7.7604-1.0364 0.47017v0.0051l1.1223 0.2224zm-1.3751 0.72295c0-0.1365-0.03033-0.26795-0.05056-0.39939l1.3246-0.69262c0-0.11122-0.0455-0.22245-0.07078-0.33367l-5.7735 1.7543 6.0263 0.3185v-0.30839zm-4.5703-7.5935a0.39434 0.39434 0 1 0 0.69262 0.364 0.39434 0.39434 0 1 0-0.68756-0.364m1.5723 0.08089c-0.21234-0.14156-0.43478-0.273-0.65723-0.39939a0.7179 0.7179 0 0 1 0.10617 0.85945 0.72801 0.72801 0 0 1-1.0364 0.31345 0.73306 0.73306 0 0 1-0.30839-1.0465 0.72801 0.72801 0 0 1 0.77856-0.39939c-0.23256-0.11122-0.47017-0.21739-0.71284-0.31345l-1.8605 5.7685zm-6.9161-1.5824c-0.23256 0.030334-0.46512 0.070779-0.69767 0.11628h0.18706l-0.03033 0.29323a1.0111 1.0111 0 0 0-0.30839 0c-0.17189 0.040445-0.22245 0.12133-0.20223 0.20728 0.020222 0.085945 0.065723 0.096057 0.23761 0.091001 0.37412 0 0.50556 0.11122 0.55612 0.30334 0.08595 0.34378-0.15672 0.54601-0.46512 0.62184a1.5167 1.5167 0 0 1-0.455 0.030334v-0.29323a1.2487 1.2487 0 0 0 0.33367 0c0.11628-0.030334 0.2275-0.08089 0.19717-0.21234-0.030334-0.13145-0.20222-0.10111-0.37412-0.10617a0.39939 0.39939 0 0 1-0.42973-0.32356 0.43478 0.43478 0 0 1 0.25784-0.50556c-0.29323 0.075834-0.57634 0.16178-0.85945 0.26289l2.4419 5.5258zm-6.2235 3.3974a9.9039 9.9039 0 0 0-1.1881 1.7189l5.4853 2.5278zm-0.24772 1.5167a0.364 0.364 0 0 1 0.4095-0.57128 0.364 0.364 0 0 1-0.4095 0.59656m-2.1587 5.1264v0.47523h0.30839l0.030334 0.364 1.1021-0.11122c0 0.11122 0 0.2275 0.040445 0.33873l-1.0768 0.1365 0.060667 0.35389-0.30839 0.05561c0 0.15672 0.060667 0.30839 0.091001 0.46512l5.7786-1.7341zm0.32356 2.366c0.060667 0.23256 0.13145 0.455 0.20728 0.67745v-0.182h0.28817a1.0566 1.0566 0 0 0 0.050556 0.30334c0.065723 0.16684 0.14661 0.20728 0.23256 0.17189 0.085945-0.03539 0.085945-0.07583 0.060667-0.24267-0.055612-0.37412 0.0455-0.50556 0.23761-0.58645 0.32861-0.12639 0.55612 0.08595 0.66734 0.38423a1.36 1.36 0 0 1 0.085945 0.44489h-0.29828a1.3145 1.3145 0 0 0-0.055612-0.33367c-0.0455-0.10617-0.10617-0.21234-0.23256-0.16684s-0.075834 0.21234-0.065723 0.38423a0.39434 0.39434 0 0 1-0.26289 0.46512 0.43984 0.43984 0 0 1-0.50556-0.18706c0.10617 0.273 0.2275 0.54095 0.35895 0.80384l5.1871-3.0839zm2.2952 4.2214a9.5551 9.5551 0 0 0 0.79373 0.77351l0.72295-0.82912c-0.15672-0.1365-0.30334-0.273-0.44995-0.41962l0.22245-0.20728a9.1456 9.1456 0 0 0 0.69767 0.63195l-0.88979 1.0819c0.15167 0.12133 0.30839 0.24267 0.47017 0.35389l3.1598-5.1416zm1.8301 1.5723q0.46006 0.30334 0.95551 0.56117l0.50556-0.98079c-0.182-0.091-0.364-0.19211-0.54095-0.30334l0.19211-0.26795a9.277 9.277 0 0 0 0.82912 0.44489l-0.60667 1.2841c0.17695 0.08089 0.35895 0.16178 0.54095 0.23256l1.815-5.7533zm2.1486 1.087c0.26795 0.09606 0.54095 0.182 0.81901 0.25278l0.36906-1.3701 0.33367 0.07584-0.31345 1.3903c0.273 0.06067 0.54601 0.11122 0.82406 0.14661l0.4095-6.0212zm2.3559 0.5359a10.035 10.035 0 0 0 1.0415 0.05561 10.212 10.212 0 0 0 1.0465-0.05561l-1.0465-5.9454zm1.4055-0.66734a0.364 0.364 0 1 1-0.364-0.364 0.35895 0.35895 0 0 1 0.364 0.364m3.3316 0.01517c0.26289-0.10617 0.50556-0.21739 0.77351-0.34378l-0.63701-1.274 0.30334-0.16178 0.68756 1.2487q0.37412-0.20222 0.72801-0.43984l-3.6906-4.7826zm2.1183-1.1577 0.37412-0.27806-0.19717-0.24772c0.09606-0.07583 0.19211-0.15167 0.28312-0.23256l-0.71284-0.84429 0.25278-0.22245 0.74823 0.81395 0.26289-0.24772 0.22245 0.22245c0.11122-0.11122 0.22245-0.2275 0.32862-0.34884l-4.7321-3.7563zm1.7745-1.6228c0.18706-0.21739 0.35895-0.43984 0.50556-0.66734l-1.1527-0.82912 0.19717-0.28311 1.183 0.78868q0.23256-0.35895 0.43984-0.72801l-5.4853-2.5278zm1.3397-2.0071c0.07078-0.1365 0.1365-0.27806 0.20222-0.42467l-0.28817-0.12639c0.05056-0.11122 0.10111-0.22245 0.14661-0.33873l-1.0111-0.41456c0.04045-0.10111 0.08089-0.21234 0.12133-0.3185l1.0415 0.37412c0.04044-0.11628 0.07583-0.2275 0.11122-0.34378l0.30334 0.09606c0.05056-0.15167 0.091-0.30334 0.13144-0.46006l-5.9454-1.1274zm0.81901-2.2649c0.05056-0.2275 0.10111-0.46006 0.1365-0.69262a1.7644 1.7644 0 0 1-0.07583 0.17189l-0.25278-0.1365a0.82912 0.82912 0 0 0 0.09606-0.29322c0-0.17695-0.03539-0.25278-0.12134-0.26289-0.08594-0.01011-0.11628 0.03033-0.16684 0.19211-0.12639 0.35389-0.28817 0.43478-0.50556 0.4095-0.34884-0.04045-0.44995-0.33873-0.41456-0.65723a1.4206 1.4206 0 0 1 0.1365-0.42973l0.26289 0.12639a1.4712 1.4712 0 0 0-0.10111 0.3185c0 0.11628 0 0.24267 0.13145 0.25784 0.13145 0.01517 0.16178-0.15167 0.23256-0.31345a0.39434 0.39434 0 0 1 0.44995-0.28312 0.43478 0.43478 0 0 1 0.36906 0.40445c0.03033-0.29322 0.05056-0.59151 0.05561-0.88979l-6.0061 0.34378zm-0.075834-4.7674c-0.07078-0.27806-0.15672-0.54601-0.25278-0.81395l-1.3347 0.47523c-0.04044-0.10111-0.08089-0.21234-0.12639-0.3185l1.3195-0.50556c-0.10111-0.26289-0.22245-0.50556-0.34884-0.77351l-5.1871 3.0839zm-0.88979-2.2599a9.9292 9.9292 0 0 0-1.1931-1.7189l-4.2922 4.2366zm-0.84934-0.68756a0.364 0.364 0 1 1-0.50556-0.091001 0.36906 0.36906 0 0 1 0.50556 0.091001m-0.55106-1.274a10.41 10.41 0 0 0-0.79373-0.77351l-0.7179 0.82912c0.15167 0.1365 0.30334 0.27806 0.44995 0.42467l-0.2275 0.20222a7.5834 7.5834 0 0 0-0.69768-0.63195l0.89484-1.0971c-0.15672-0.12133-0.31345-0.24267-0.47523-0.35895l-3.1699 5.1618zm-3.9838-2.6593c-0.21739-0.075834-0.44489-0.14661-0.66734-0.21234 0.05056 0.030334 0.10617 0.055612 0.15672 0.091001l-0.16684 0.23256a1.0111 1.0111 0 0 0-0.27806-0.12639c-0.17189-0.0455-0.25278 0-0.273 0.091001-0.02022 0.091001 0 0.11628 0.16684 0.18706 0.33367 0.16684 0.39434 0.33367 0.34884 0.50556-0.08595 0.34378-0.39434 0.40445-0.70273 0.32861a1.4408 1.4408 0 0 1-0.41456-0.182l0.16178-0.24772a1.3852 1.3852 0 0 0 0.30334 0.1365c0.11628 0 0.23761 0.035389 0.26795-0.096057 0.03033-0.13145-0.12639-0.182-0.27806-0.26795a0.39939 0.39939 0 0 1-0.2275-0.50556 0.43478 0.43478 0 0 1 0.44489-0.3185c-0.28817-0.065723-0.57634-0.11628-0.87462-0.15672l-0.40445 6.0212zm-2.3509-0.53589a9.8736 9.8736 0 0 0-2.093 0l1.0465 5.9454zm-1.4055 0.66734a0.364 0.364 0 1 1 0.35895 0.364 0.35895 0.35895 0 0 1-0.35895-0.364m-1.3498 10.207a0.77856 0.77856 0 0 0 0.78362 0.77856h0.364a0.46512 0.46512 0 0 1 0.42467 0.28311h0.27806a0.46006 0.46006 0 0 1 0.42467-0.28311h0.364a0.77856 0.77856 0 0 0 0.77856-0.77856v-2.639h-3.4176zm3.0991-2.3205v2.3205a0.46006 0.46006 0 0 1-0.13145 0.32356l-2.6593-2.6441z" style="stroke-width:.50556" />
</svg>