
      <svg xmlns="http://www.w3.org/2000/svg" version="1.1" style="display: block;" width="1920" height="500"><polygon stroke-linejoin="round" stroke-miterlimit="1" stroke-width="1" points="449,-51 -103,-51 -79,-48" style="fill:#4dc0ff;stroke:#4dc0ff;"></polygon><polygon stroke-linejoin="round" stroke-miterlimit="1" stroke-width="1" points="1405,-31 961,-51 1300,-22" style="fill:#177ebe;stroke:#177ebe;"></polygon><polygon stroke-linejoin="round" stroke-miterlimit="1" stroke-width="1" points="1796,510 1714,500 1276,529" style="fill:#1e87c8;stroke:#1e87c8;"></polygon><polygon stroke-linejoin="round" stroke-miterlimit="1" stroke-width="1" points="1826,-51 961,-51 1405,-31" style="fill:#1277b7;stroke:#1277b7;"></polygon><polygon stroke-linejoin="round" stroke-miterlimit="1" stroke-width="1" points="1826,-51 1405,-31 1558,-13" style="fill:#1177b6;stroke:#1177b6;"></polygon><polygon stroke-linejoin="round" stroke-miterlimit="1" stroke-width="1" points="1982,517 1940,512 1884,512" style="fill:#1d85c6;stroke:#1d85c6;"></polygon><polygon stroke-linejoin="round" stroke-miterlimit="1" stroke-width="1" points="2016,-51 1826,-51 1926,-47" style="fill:#0f74b3;stroke:#0f74b3;"></polygon><polygon stroke-linejoin="round" stroke-miterlimit="1" stroke-width="1" points="2113,375 1858,309 1976,482" style="fill:#1177b6;stroke:#1177b6;"></polygon><polygon stroke-linejoin="round" stroke-miterlimit="1" stroke-width="1" points="2113,401 2113,375 1976,482" style="fill:#0f74b3;stroke:#0f74b3;"></polygon><polygon stroke-linejoin="round" stroke-miterlimit="1" stroke-width="1" points="2113,477 2113,401 1976,482" style="fill:#147ab9;stroke:#147ab9;"></polygon><polygon stroke-linejoin="round" stroke-miterlimit="1" stroke-width="1" points="2113,477 1976,482 1982,517" style="fill:#1278b7;stroke:#1278b7;"></polygon><polygon stroke-linejoin="round" stroke-miterlimit="1" stroke-width="1" points="2113,-1 2007,51 2113,79" style="fill:#1378b8;stroke:#1378b8;"></polygon><polygon stroke-linejoin="round" stroke-miterlimit="1" stroke-width="1" points="2113,-1 2113,-40 2016,-51" style="fill:#0f74b3;stroke:#0f74b3;"></polygon><polygon stroke-linejoin="round" stroke-miterlimit="1" stroke-width="1" points="2113,-1 2016,-51 2007,51" style="fill:#187fc0;stroke:#187fc0;"></polygon><polygon stroke-linejoin="round" stroke-miterlimit="1" stroke-width="1" points="2113,247 1903,67 1822,235" style="fill:#0f74b3;stroke:#0f74b3;"></polygon><polygon stroke-linejoin="round" stroke-miterlimit="1" stroke-width="1" points="2113,247 1822,235 1858,309" style="fill:#0f74b3;stroke:#0f74b3;"></polygon><polygon stroke-linejoin="round" stroke-miterlimit="1" stroke-width="1" points="2113,247 2007,51 1903,67" style="fill:#157cbc;stroke:#157cbc;"></polygon><polygon stroke-linejoin="round" stroke-miterlimit="1" stroke-width="1" points="2113,247 2113,79 2007,51" style="fill:#167cbc;stroke:#167cbc;"></polygon><polygon stroke-linejoin="round" stroke-miterlimit="1" stroke-width="1" points="2113,549 1982,517 1884,512" style="fill:#0f74b3;stroke:#0f74b3;"></polygon><polygon stroke-linejoin="round" stroke-miterlimit="1" stroke-width="1" points="2113,549 1884,512 1796,510" style="fill:#0f74b3;stroke:#0f74b3;"></polygon><polygon stroke-linejoin="round" stroke-miterlimit="1" stroke-width="1" points="2113,549 1796,510 1276,529" style="fill:#187fbf;stroke:#187fbf;"></polygon><polygon stroke-linejoin="round" stroke-miterlimit="1" stroke-width="1" points="2113,549 1276,529 1099,549" style="fill:#0f74b3;stroke:#0f74b3;"></polygon><polygon stroke-linejoin="round" stroke-miterlimit="1" stroke-width="1" points="2113,549 2113,477 1982,517" style="fill:#0f74b3;stroke:#0f74b3;"></polygon><polygon stroke-linejoin="round" stroke-miterlimit="1" stroke-width="1" points="2113,249 2113,247 1858,309" style="fill:#0f74b3;stroke:#0f74b3;"></polygon><polygon stroke-linejoin="round" stroke-miterlimit="1" stroke-width="1" points="2113,249 1858,309 2113,375" style="fill:#167dbd;stroke:#167dbd;"></polygon><polygon stroke-linejoin="round" stroke-miterlimit="1" stroke-width="1" points="2113,-51 2016,-51 2113,-40" style="fill:#187fbf;stroke:#187fbf;"></polygon><polygon stroke-linejoin="round" stroke-miterlimit="1" stroke-width="1" points="1714,500 1574,465 1276,529" style="fill:#1d85c5;stroke:#1d85c5;"></polygon><polygon stroke-linejoin="round" stroke-miterlimit="1" stroke-width="1" points="1903,67 1843,119 1822,235" style="fill:#167dbd;stroke:#167dbd;"></polygon><polygon stroke-linejoin="round" stroke-miterlimit="1" stroke-width="1" points="2007,51 1926,-47 1903,67" style="fill:#228ccd;stroke:#228ccd;"></polygon><polygon stroke-linejoin="round" stroke-miterlimit="1" stroke-width="1" points="2016,-51 1926,-47 2007,51" style="fill:#157cbc;stroke:#157cbc;"></polygon><polygon stroke-linejoin="round" stroke-miterlimit="1" stroke-width="1" points="1976,482 1858,309 1884,512" style="fill:#1f88c9;stroke:#1f88c9;"></polygon><polygon stroke-linejoin="round" stroke-miterlimit="1" stroke-width="1" points="1843,119 1828,135 1822,235" style="fill:#167dbd;stroke:#167dbd;"></polygon><polygon stroke-linejoin="round" stroke-miterlimit="1" stroke-width="1" points="1884,512 1858,309 1789,419" style="fill:#147bba;stroke:#147bba;"></polygon><polygon stroke-linejoin="round" stroke-miterlimit="1" stroke-width="1" points="1976,482 1884,512 1940,512" style="fill:#2b96d8;stroke:#2b96d8;"></polygon><polygon stroke-linejoin="round" stroke-miterlimit="1" stroke-width="1" points="1982,517 1976,482 1940,512" style="fill:#0f74b3;stroke:#0f74b3;"></polygon><polygon stroke-linejoin="round" stroke-miterlimit="1" stroke-width="1" points="1858,309 1797,356 1789,419" style="fill:#0f74b3;stroke:#0f74b3;"></polygon><polygon stroke-linejoin="round" stroke-miterlimit="1" stroke-width="1" points="1926,-47 1826,-51 1903,67" style="fill:#0f74b3;stroke:#0f74b3;"></polygon><polygon stroke-linejoin="round" stroke-miterlimit="1" stroke-width="1" points="1884,512 1791,505 1796,510" style="fill:#35a2e5;stroke:#35a2e5;"></polygon><polygon stroke-linejoin="round" stroke-miterlimit="1" stroke-width="1" points="1884,512 1789,419 1791,505" style="fill:#0f74b3;stroke:#0f74b3;"></polygon><polygon stroke-linejoin="round" stroke-miterlimit="1" stroke-width="1" points="1903,67 1826,-51 1843,119" style="fill:#0f74b3;stroke:#0f74b3;"></polygon><polygon stroke-linejoin="round" stroke-miterlimit="1" stroke-width="1" points="1828,135 1826,-51 1558,-13" style="fill:#187fbf;stroke:#187fbf;"></polygon><polygon stroke-linejoin="round" stroke-miterlimit="1" stroke-width="1" points="1843,119 1826,-51 1828,135" style="fill:#52c5ff;stroke:#52c5ff;"></polygon><polygon stroke-linejoin="round" stroke-miterlimit="1" stroke-width="1" points="1858,309 1822,235 1797,356" style="fill:#0f74b3;stroke:#0f74b3;"></polygon><polygon stroke-linejoin="round" stroke-miterlimit="1" stroke-width="1" points="1822,235 1740,334 1797,356" style="fill:#0f74b3;stroke:#0f74b3;"></polygon><polygon stroke-linejoin="round" stroke-miterlimit="1" stroke-width="1" points="1828,135 1675,240 1822,235" style="fill:#147ab9;stroke:#147ab9;"></polygon><polygon stroke-linejoin="round" stroke-miterlimit="1" stroke-width="1" points="1828,135 1558,-13 1675,240" style="fill:#157bbb;stroke:#157bbb;"></polygon><polygon stroke-linejoin="round" stroke-miterlimit="1" stroke-width="1" points="1822,235 1675,240 1740,334" style="fill:#187fbf;stroke:#187fbf;"></polygon><polygon stroke-linejoin="round" stroke-miterlimit="1" stroke-width="1" points="1791,505 1789,419 1714,500" style="fill:#0f74b3;stroke:#0f74b3;"></polygon><polygon stroke-linejoin="round" stroke-miterlimit="1" stroke-width="1" points="1796,510 1791,505 1714,500" style="fill:#0f74b3;stroke:#0f74b3;"></polygon><polygon stroke-linejoin="round" stroke-miterlimit="1" stroke-width="1" points="1797,356 1740,334 1789,419" style="fill:#2e9add;stroke:#2e9add;"></polygon><polygon stroke-linejoin="round" stroke-miterlimit="1" stroke-width="1" points="1789,419 1683,437 1714,500" style="fill:#1278b7;stroke:#1278b7;"></polygon><polygon stroke-linejoin="round" stroke-miterlimit="1" stroke-width="1" points="1789,419 1740,334 1683,437" style="fill:#0f74b3;stroke:#0f74b3;"></polygon><polygon stroke-linejoin="round" stroke-miterlimit="1" stroke-width="1" points="1574,465 1410,452 1276,529" style="fill:#157cbb;stroke:#157cbb;"></polygon><polygon stroke-linejoin="round" stroke-miterlimit="1" stroke-width="1" points="1740,334 1635,408 1683,437" style="fill:#0f74b3;stroke:#0f74b3;"></polygon><polygon stroke-linejoin="round" stroke-miterlimit="1" stroke-width="1" points="1740,334 1675,240 1635,408" style="fill:#218acb;stroke:#218acb;"></polygon><polygon stroke-linejoin="round" stroke-miterlimit="1" stroke-width="1" points="1675,240 1558,-13 1436,221" style="fill:#1379b9;stroke:#1379b9;"></polygon><polygon stroke-linejoin="round" stroke-miterlimit="1" stroke-width="1" points="1714,500 1683,437 1574,465" style="fill:#1880c0;stroke:#1880c0;"></polygon><polygon stroke-linejoin="round" stroke-miterlimit="1" stroke-width="1" points="1675,240 1436,221 1635,408" style="fill:#147aba;stroke:#147aba;"></polygon><polygon stroke-linejoin="round" stroke-miterlimit="1" stroke-width="1" points="1683,437 1635,408 1574,465" style="fill:#2a95d7;stroke:#2a95d7;"></polygon><polygon stroke-linejoin="round" stroke-miterlimit="1" stroke-width="1" points="1558,-13 1405,-31 1444,-9" style="fill:#2a95d7;stroke:#2a95d7;"></polygon><polygon stroke-linejoin="round" stroke-miterlimit="1" stroke-width="1" points="1558,-13 1379,139 1436,221" style="fill:#1076b5;stroke:#1076b5;"></polygon><polygon stroke-linejoin="round" stroke-miterlimit="1" stroke-width="1" points="1635,408 1419,419 1574,465" style="fill:#147aba;stroke:#147aba;"></polygon><polygon stroke-linejoin="round" stroke-miterlimit="1" stroke-width="1" points="1635,408 1436,221 1419,419" style="fill:#177ebe;stroke:#177ebe;"></polygon><polygon stroke-linejoin="round" stroke-miterlimit="1" stroke-width="1" points="1558,-13 1444,-9 1379,139" style="fill:#1379b9;stroke:#1379b9;"></polygon><polygon stroke-linejoin="round" stroke-miterlimit="1" stroke-width="1" points="1574,465 1419,419 1410,452" style="fill:#157bbb;stroke:#157bbb;"></polygon><polygon stroke-linejoin="round" stroke-miterlimit="1" stroke-width="1" points="1436,221 1337,290 1419,419" style="fill:#1c84c5;stroke:#1c84c5;"></polygon><polygon stroke-linejoin="round" stroke-miterlimit="1" stroke-width="1" points="1444,-9 1405,-31 1398,-24" style="fill:#64dcff;stroke:#64dcff;"></polygon><polygon stroke-linejoin="round" stroke-miterlimit="1" stroke-width="1" points="1444,-9 1398,-24 1379,139" style="fill:#0f74b3;stroke:#0f74b3;"></polygon><polygon stroke-linejoin="round" stroke-miterlimit="1" stroke-width="1" points="1398,-24 1300,-22 1379,139" style="fill:#0f74b3;stroke:#0f74b3;"></polygon><polygon stroke-linejoin="round" stroke-miterlimit="1" stroke-width="1" points="1436,221 1379,139 1337,290" style="fill:#238cce;stroke:#238cce;"></polygon><polygon stroke-linejoin="round" stroke-miterlimit="1" stroke-width="1" points="1379,139 1300,-22 1255,61" style="fill:#2088c9;stroke:#2088c9;"></polygon><polygon stroke-linejoin="round" stroke-miterlimit="1" stroke-width="1" points="1405,-31 1300,-22 1398,-24" style="fill:#0f74b3;stroke:#0f74b3;"></polygon><polygon stroke-linejoin="round" stroke-miterlimit="1" stroke-width="1" points="1419,419 1337,290 1410,452" style="fill:#1b83c4;stroke:#1b83c4;"></polygon><polygon stroke-linejoin="round" stroke-miterlimit="1" stroke-width="1" points="1410,452 1337,290 1276,529" style="fill:#1e87c8;stroke:#1e87c8;"></polygon><polygon stroke-linejoin="round" stroke-miterlimit="1" stroke-width="1" points="1337,290 1122,369 1276,529" style="fill:#1c84c5;stroke:#1c84c5;"></polygon><polygon stroke-linejoin="round" stroke-miterlimit="1" stroke-width="1" points="1379,139 1255,61 1337,290" style="fill:#1c85c5;stroke:#1c85c5;"></polygon><polygon stroke-linejoin="round" stroke-miterlimit="1" stroke-width="1" points="1276,529 1122,369 1113,437" style="fill:#1e86c7;stroke:#1e86c7;"></polygon><polygon stroke-linejoin="round" stroke-miterlimit="1" stroke-width="1" points="1337,290 1255,61 1124,129" style="fill:#1b83c3;stroke:#1b83c3;"></polygon><polygon stroke-linejoin="round" stroke-miterlimit="1" stroke-width="1" points="1337,290 1124,129 1113,254" style="fill:#218acb;stroke:#218acb;"></polygon><polygon stroke-linejoin="round" stroke-miterlimit="1" stroke-width="1" points="1337,290 1113,254 1122,369" style="fill:#1379b9;stroke:#1379b9;"></polygon><polygon stroke-linejoin="round" stroke-miterlimit="1" stroke-width="1" points="1300,-22 961,-51 1255,61" style="fill:#1a81c1;stroke:#1a81c1;"></polygon><polygon stroke-linejoin="round" stroke-miterlimit="1" stroke-width="1" points="1255,61 961,-51 1124,129" style="fill:#1d85c5;stroke:#1d85c5;"></polygon><polygon stroke-linejoin="round" stroke-miterlimit="1" stroke-width="1" points="1276,529 1113,437 1103,461" style="fill:#1b83c3;stroke:#1b83c3;"></polygon><polygon stroke-linejoin="round" stroke-miterlimit="1" stroke-width="1" points="1276,529 1103,461 1099,549" style="fill:#1c84c5;stroke:#1c84c5;"></polygon><polygon stroke-linejoin="round" stroke-miterlimit="1" stroke-width="1" points="1099,549 999,540 961,549" style="fill:#0f74b3;stroke:#0f74b3;"></polygon><polygon stroke-linejoin="round" stroke-miterlimit="1" stroke-width="1" points="1099,549 1063,532 999,540" style="fill:#0f74b3;stroke:#0f74b3;"></polygon><polygon stroke-linejoin="round" stroke-miterlimit="1" stroke-width="1" points="1103,461 1063,532 1099,549" style="fill:#1d86c6;stroke:#1d86c6;"></polygon><polygon stroke-linejoin="round" stroke-miterlimit="1" stroke-width="1" points="1113,254 1109,139 956,143" style="fill:#177ebe;stroke:#177ebe;"></polygon><polygon stroke-linejoin="round" stroke-miterlimit="1" stroke-width="1" points="1122,369 1113,254 956,143" style="fill:#1b83c4;stroke:#1b83c4;"></polygon><polygon stroke-linejoin="round" stroke-miterlimit="1" stroke-width="1" points="1122,369 956,143 848,490" style="fill:#1e87c8;stroke:#1e87c8;"></polygon><polygon stroke-linejoin="round" stroke-miterlimit="1" stroke-width="1" points="1124,129 948,51 1109,139" style="fill:#177ebe;stroke:#177ebe;"></polygon><polygon stroke-linejoin="round" stroke-miterlimit="1" stroke-width="1" points="1124,129 961,-51 948,51" style="fill:#1d85c6;stroke:#1d85c6;"></polygon><polygon stroke-linejoin="round" stroke-miterlimit="1" stroke-width="1" points="1124,129 1109,139 1113,254" style="fill:#34a2e5;stroke:#34a2e5;"></polygon><polygon stroke-linejoin="round" stroke-miterlimit="1" stroke-width="1" points="1109,139 948,51 956,143" style="fill:#1a82c2;stroke:#1a82c2;"></polygon><polygon stroke-linejoin="round" stroke-miterlimit="1" stroke-width="1" points="1122,369 848,490 1113,437" style="fill:#1b83c4;stroke:#1b83c4;"></polygon><polygon stroke-linejoin="round" stroke-miterlimit="1" stroke-width="1" points="1113,437 999,540 1103,461" style="fill:#187fbf;stroke:#187fbf;"></polygon><polygon stroke-linejoin="round" stroke-miterlimit="1" stroke-width="1" points="1113,437 848,490 999,540" style="fill:#1277b7;stroke:#1277b7;"></polygon><polygon stroke-linejoin="round" stroke-miterlimit="1" stroke-width="1" points="956,143 818,175 848,490" style="fill:#228bcd;stroke:#228bcd;"></polygon><polygon stroke-linejoin="round" stroke-miterlimit="1" stroke-width="1" points="1103,461 999,540 1063,532" style="fill:#1176b6;stroke:#1176b6;"></polygon><polygon stroke-linejoin="round" stroke-miterlimit="1" stroke-width="1" points="999,540 848,490 961,549" style="fill:#36a4e7;stroke:#36a4e7;"></polygon><polygon stroke-linejoin="round" stroke-miterlimit="1" stroke-width="1" points="948,51 819,-51 799,13" style="fill:#2d99db;stroke:#2d99db;"></polygon><polygon stroke-linejoin="round" stroke-miterlimit="1" stroke-width="1" points="956,143 948,51 818,175" style="fill:#2b97d9;stroke:#2b97d9;"></polygon><polygon stroke-linejoin="round" stroke-miterlimit="1" stroke-width="1" points="961,549 848,490 802,549" style="fill:#238dce;stroke:#238dce;"></polygon><polygon stroke-linejoin="round" stroke-miterlimit="1" stroke-width="1" points="961,-51 819,-51 948,51" style="fill:#1d85c6;stroke:#1d85c6;"></polygon><polygon stroke-linejoin="round" stroke-miterlimit="1" stroke-width="1" points="848,490 818,175 735,188" style="fill:#2690d2;stroke:#2690d2;"></polygon><polygon stroke-linejoin="round" stroke-miterlimit="1" stroke-width="1" points="948,51 799,13 818,175" style="fill:#2690d1;stroke:#2690d1;"></polygon><polygon stroke-linejoin="round" stroke-miterlimit="1" stroke-width="1" points="735,188 569,268 596,443" style="fill:#35a3e7;stroke:#35a3e7;"></polygon><polygon stroke-linejoin="round" stroke-miterlimit="1" stroke-width="1" points="818,175 799,13 758,91" style="fill:#3baaee;stroke:#3baaee;"></polygon><polygon stroke-linejoin="round" stroke-miterlimit="1" stroke-width="1" points="848,490 596,443 747,549" style="fill:#2088c9;stroke:#2088c9;"></polygon><polygon stroke-linejoin="round" stroke-miterlimit="1" stroke-width="1" points="848,490 735,188 596,443" style="fill:#258fd1;stroke:#258fd1;"></polygon><polygon stroke-linejoin="round" stroke-miterlimit="1" stroke-width="1" points="848,490 747,549 802,549" style="fill:#248dcf;stroke:#248dcf;"></polygon><polygon stroke-linejoin="round" stroke-miterlimit="1" stroke-width="1" points="818,175 758,91 735,188" style="fill:#319ee0;stroke:#319ee0;"></polygon><polygon stroke-linejoin="round" stroke-miterlimit="1" stroke-width="1" points="819,-51 715,-6 799,13" style="fill:#2088c9;stroke:#2088c9;"></polygon><polygon stroke-linejoin="round" stroke-miterlimit="1" stroke-width="1" points="819,-51 660,-51 715,-6" style="fill:#2f9bde;stroke:#2f9bde;"></polygon><polygon stroke-linejoin="round" stroke-miterlimit="1" stroke-width="1" points="747,549 596,443 655,549" style="fill:#1379b9;stroke:#1379b9;"></polygon><polygon stroke-linejoin="round" stroke-miterlimit="1" stroke-width="1" points="799,13 730,73 758,91" style="fill:#42b3f8;stroke:#42b3f8;"></polygon><polygon stroke-linejoin="round" stroke-miterlimit="1" stroke-width="1" points="799,13 715,-6 730,73" style="fill:#248dcf;stroke:#248dcf;"></polygon><polygon stroke-linejoin="round" stroke-miterlimit="1" stroke-width="1" points="758,91 730,73 735,188" style="fill:#4dc0ff;stroke:#4dc0ff;"></polygon><polygon stroke-linejoin="round" stroke-miterlimit="1" stroke-width="1" points="730,73 665,5 504,104" style="fill:#50c3ff;stroke:#50c3ff;"></polygon><polygon stroke-linejoin="round" stroke-miterlimit="1" stroke-width="1" points="730,73 715,-6 665,5" style="fill:#47b8fe;stroke:#47b8fe;"></polygon><polygon stroke-linejoin="round" stroke-miterlimit="1" stroke-width="1" points="735,188 730,73 504,104" style="fill:#55c9ff;stroke:#55c9ff;"></polygon><polygon stroke-linejoin="round" stroke-miterlimit="1" stroke-width="1" points="735,188 504,104 569,268" style="fill:#69e2ff;stroke:#69e2ff;"></polygon><polygon stroke-linejoin="round" stroke-miterlimit="1" stroke-width="1" points="449,-51 -79,-48 209,18" style="fill:#1b83c3;stroke:#1b83c3;"></polygon><polygon stroke-linejoin="round" stroke-miterlimit="1" stroke-width="1" points="715,-6 660,-51 665,5" style="fill:#1a81c2;stroke:#1a81c2;"></polygon><polygon stroke-linejoin="round" stroke-miterlimit="1" stroke-width="1" points="348,549 84,533 29,549" style="fill:#0f74b3;stroke:#0f74b3;"></polygon><polygon stroke-linejoin="round" stroke-miterlimit="1" stroke-width="1" points="655,549 584,503 483,549" style="fill:#157bbb;stroke:#157bbb;"></polygon><polygon stroke-linejoin="round" stroke-miterlimit="1" stroke-width="1" points="655,549 596,443 584,503" style="fill:#2089ca;stroke:#2089ca;"></polygon><polygon stroke-linejoin="round" stroke-miterlimit="1" stroke-width="1" points="660,-51 498,-51 534,-10" style="fill:#35a3e6;stroke:#35a3e6;"></polygon><polygon stroke-linejoin="round" stroke-miterlimit="1" stroke-width="1" points="665,5 660,-51 534,-10" style="fill:#3baaee;stroke:#3baaee;"></polygon><polygon stroke-linejoin="round" stroke-miterlimit="1" stroke-width="1" points="665,5 534,-10 504,104" style="fill:#52c6ff;stroke:#52c6ff;"></polygon><polygon stroke-linejoin="round" stroke-miterlimit="1" stroke-width="1" points="534,-10 498,-51 507,-28" style="fill:#1f88c9;stroke:#1f88c9;"></polygon><polygon stroke-linejoin="round" stroke-miterlimit="1" stroke-width="1" points="569,268 504,104 495,241" style="fill:#65ddff;stroke:#65ddff;"></polygon><polygon stroke-linejoin="round" stroke-miterlimit="1" stroke-width="1" points="569,268 495,241 493,465" style="fill:#2a96d8;stroke:#2a96d8;"></polygon><polygon stroke-linejoin="round" stroke-miterlimit="1" stroke-width="1" points="596,443 493,465 584,503" style="fill:#2690d2;stroke:#2690d2;"></polygon><polygon stroke-linejoin="round" stroke-miterlimit="1" stroke-width="1" points="596,443 569,268 493,465" style="fill:#2c97da;stroke:#2c97da;"></polygon><polygon stroke-linejoin="round" stroke-miterlimit="1" stroke-width="1" points="584,503 493,465 483,549" style="fill:#2089ca;stroke:#2089ca;"></polygon><polygon stroke-linejoin="round" stroke-miterlimit="1" stroke-width="1" points="504,104 452,125 495,241" style="fill:#47b9ff;stroke:#47b9ff;"></polygon><polygon stroke-linejoin="round" stroke-miterlimit="1" stroke-width="1" points="534,-10 461,44 504,104" style="fill:#54c9ff;stroke:#54c9ff;"></polygon><polygon stroke-linejoin="round" stroke-miterlimit="1" stroke-width="1" points="493,465 247,406 355,504" style="fill:#1f88c9;stroke:#1f88c9;"></polygon><polygon stroke-linejoin="round" stroke-miterlimit="1" stroke-width="1" points="495,241 247,406 493,465" style="fill:#2994d6;stroke:#2994d6;"></polygon><polygon stroke-linejoin="round" stroke-miterlimit="1" stroke-width="1" points="534,-10 507,-28 461,44" style="fill:#46b8fd;stroke:#46b8fd;"></polygon><polygon stroke-linejoin="round" stroke-miterlimit="1" stroke-width="1" points="495,241 452,125 437,132" style="fill:#5bd1ff;stroke:#5bd1ff;"></polygon><polygon stroke-linejoin="round" stroke-miterlimit="1" stroke-width="1" points="504,104 461,44 452,125" style="fill:#55caff;stroke:#55caff;"></polygon><polygon stroke-linejoin="round" stroke-miterlimit="1" stroke-width="1" points="507,-28 498,-51 449,-51" style="fill:#238dce;stroke:#238dce;"></polygon><polygon stroke-linejoin="round" stroke-miterlimit="1" stroke-width="1" points="507,-28 449,-51 461,44" style="fill:#3faff4;stroke:#3faff4;"></polygon><polygon stroke-linejoin="round" stroke-miterlimit="1" stroke-width="1" points="493,465 355,504 483,549" style="fill:#0f74b3;stroke:#0f74b3;"></polygon><polygon stroke-linejoin="round" stroke-miterlimit="1" stroke-width="1" points="495,241 257,156 247,406" style="fill:#2690d2;stroke:#2690d2;"></polygon><polygon stroke-linejoin="round" stroke-miterlimit="1" stroke-width="1" points="495,241 437,132 257,156" style="fill:#41b2f7;stroke:#41b2f7;"></polygon><polygon stroke-linejoin="round" stroke-miterlimit="1" stroke-width="1" points="483,549 355,504 348,549" style="fill:#329ee1;stroke:#329ee1;"></polygon><polygon stroke-linejoin="round" stroke-miterlimit="1" stroke-width="1" points="461,44 257,156 437,132" style="fill:#35a3e6;stroke:#35a3e6;"></polygon><polygon stroke-linejoin="round" stroke-miterlimit="1" stroke-width="1" points="461,44 209,18 257,156" style="fill:#2690d1;stroke:#2690d1;"></polygon><polygon stroke-linejoin="round" stroke-miterlimit="1" stroke-width="1" points="461,44 449,-51 209,18" style="fill:#2f9cde;stroke:#2f9cde;"></polygon><polygon stroke-linejoin="round" stroke-miterlimit="1" stroke-width="1" points="461,44 437,132 452,125" style="fill:#1176b5;stroke:#1176b5;"></polygon><polygon stroke-linejoin="round" stroke-miterlimit="1" stroke-width="1" points="348,549 224,504 84,533" style="fill:#0f74b3;stroke:#0f74b3;"></polygon><polygon stroke-linejoin="round" stroke-miterlimit="1" stroke-width="1" points="257,156 148,215 247,406" style="fill:#1a82c2;stroke:#1a82c2;"></polygon><polygon stroke-linejoin="round" stroke-miterlimit="1" stroke-width="1" points="355,504 224,504 348,549" style="fill:#36a4e7;stroke:#36a4e7;"></polygon><polygon stroke-linejoin="round" stroke-miterlimit="1" stroke-width="1" points="355,504 258,455 224,504" style="fill:#1278b8;stroke:#1278b8;"></polygon><polygon stroke-linejoin="round" stroke-miterlimit="1" stroke-width="1" points="355,504 247,406 258,455" style="fill:#1f88c9;stroke:#1f88c9;"></polygon><polygon stroke-linejoin="round" stroke-miterlimit="1" stroke-width="1" points="209,18 -79,-48 138,47" style="fill:#1c84c5;stroke:#1c84c5;"></polygon><polygon stroke-linejoin="round" stroke-miterlimit="1" stroke-width="1" points="224,504 204,497 84,533" style="fill:#329fe2;stroke:#329fe2;"></polygon><polygon stroke-linejoin="round" stroke-miterlimit="1" stroke-width="1" points="247,406 148,215 109,286" style="fill:#1d85c5;stroke:#1d85c5;"></polygon><polygon stroke-linejoin="round" stroke-miterlimit="1" stroke-width="1" points="257,156 174,130 148,215" style="fill:#2f9bde;stroke:#2f9bde;"></polygon><polygon stroke-linejoin="round" stroke-miterlimit="1" stroke-width="1" points="257,156 209,18 174,130" style="fill:#1d85c6;stroke:#1d85c6;"></polygon><polygon stroke-linejoin="round" stroke-miterlimit="1" stroke-width="1" points="258,455 247,406 204,497" style="fill:#0f74b3;stroke:#0f74b3;"></polygon><polygon stroke-linejoin="round" stroke-miterlimit="1" stroke-width="1" points="258,455 204,497 224,504" style="fill:#228ccd;stroke:#228ccd;"></polygon><polygon stroke-linejoin="round" stroke-miterlimit="1" stroke-width="1" points="209,18 136,88 174,130" style="fill:#238dce;stroke:#238dce;"></polygon><polygon stroke-linejoin="round" stroke-miterlimit="1" stroke-width="1" points="247,406 109,286 51,367" style="fill:#258fd0;stroke:#258fd0;"></polygon><polygon stroke-linejoin="round" stroke-miterlimit="1" stroke-width="1" points="247,406 51,367 50,384" style="fill:#39a7eb;stroke:#39a7eb;"></polygon><polygon stroke-linejoin="round" stroke-miterlimit="1" stroke-width="1" points="247,406 50,384 204,497" style="fill:#1f88c9;stroke:#1f88c9;"></polygon><polygon stroke-linejoin="round" stroke-miterlimit="1" stroke-width="1" points="174,130 140,151 148,215" style="fill:#1177b6;stroke:#1177b6;"></polygon><polygon stroke-linejoin="round" stroke-miterlimit="1" stroke-width="1" points="209,18 138,47 136,88" style="fill:#187fbf;stroke:#187fbf;"></polygon><polygon stroke-linejoin="round" stroke-miterlimit="1" stroke-width="1" points="204,497 50,384 84,533" style="fill:#1e86c7;stroke:#1e86c7;"></polygon><polygon stroke-linejoin="round" stroke-miterlimit="1" stroke-width="1" points="84,533 50,384 44,504" style="fill:#2691d2;stroke:#2691d2;"></polygon><polygon stroke-linejoin="round" stroke-miterlimit="1" stroke-width="1" points="174,130 136,88 140,151" style="fill:#2a95d7;stroke:#2a95d7;"></polygon><polygon stroke-linejoin="round" stroke-miterlimit="1" stroke-width="1" points="140,151 136,88 90,121" style="fill:#2893d5;stroke:#2893d5;"></polygon><polygon stroke-linejoin="round" stroke-miterlimit="1" stroke-width="1" points="148,215 140,151 78,151" style="fill:#2994d6;stroke:#2994d6;"></polygon><polygon stroke-linejoin="round" stroke-miterlimit="1" stroke-width="1" points="148,215 78,151 109,286" style="fill:#147bba;stroke:#147bba;"></polygon><polygon stroke-linejoin="round" stroke-miterlimit="1" stroke-width="1" points="138,47 -79,-48 -59,89" style="fill:#1d85c6;stroke:#1d85c6;"></polygon><polygon stroke-linejoin="round" stroke-miterlimit="1" stroke-width="1" points="138,47 90,121 136,88" style="fill:#0f74b3;stroke:#0f74b3;"></polygon><polygon stroke-linejoin="round" stroke-miterlimit="1" stroke-width="1" points="140,151 90,121 78,151" style="fill:#0f74b3;stroke:#0f74b3;"></polygon><polygon stroke-linejoin="round" stroke-miterlimit="1" stroke-width="1" points="138,47 -59,89 90,121" style="fill:#177ebe;stroke:#177ebe;"></polygon><polygon stroke-linejoin="round" stroke-miterlimit="1" stroke-width="1" points="109,286 78,151 -89,254" style="fill:#167dbd;stroke:#167dbd;"></polygon><polygon stroke-linejoin="round" stroke-miterlimit="1" stroke-width="1" points="109,286 -89,254 45,361" style="fill:#1980c0;stroke:#1980c0;"></polygon><polygon stroke-linejoin="round" stroke-miterlimit="1" stroke-width="1" points="109,286 45,361 51,367" style="fill:#34a1e4;stroke:#34a1e4;"></polygon><polygon stroke-linejoin="round" stroke-miterlimit="1" stroke-width="1" points="29,549 -114,516 -191,549" style="fill:#248ed0;stroke:#248ed0;"></polygon><polygon stroke-linejoin="round" stroke-miterlimit="1" stroke-width="1" points="78,151 -78,137 -89,254" style="fill:#1277b7;stroke:#1277b7;"></polygon><polygon stroke-linejoin="round" stroke-miterlimit="1" stroke-width="1" points="90,121 -59,89 78,151" style="fill:#177ebe;stroke:#177ebe;"></polygon><polygon stroke-linejoin="round" stroke-miterlimit="1" stroke-width="1" points="84,533 44,504 29,549" style="fill:#187fbf;stroke:#187fbf;"></polygon><polygon stroke-linejoin="round" stroke-miterlimit="1" stroke-width="1" points="78,151 -59,89 -78,137" style="fill:#1a82c2;stroke:#1a82c2;"></polygon><polygon stroke-linejoin="round" stroke-miterlimit="1" stroke-width="1" points="29,549 -98,512 -114,516" style="fill:#0f74b3;stroke:#0f74b3;"></polygon><polygon stroke-linejoin="round" stroke-miterlimit="1" stroke-width="1" points="50,384 -98,512 44,504" style="fill:#187fbf;stroke:#187fbf;"></polygon><polygon stroke-linejoin="round" stroke-miterlimit="1" stroke-width="1" points="51,367 45,361 50,384" style="fill:#0f74b3;stroke:#0f74b3;"></polygon><polygon stroke-linejoin="round" stroke-miterlimit="1" stroke-width="1" points="50,384 45,361 -155,475" style="fill:#137ab9;stroke:#137ab9;"></polygon><polygon stroke-linejoin="round" stroke-miterlimit="1" stroke-width="1" points="50,384 -155,475 -98,512" style="fill:#157bbb;stroke:#157bbb;"></polygon><polygon stroke-linejoin="round" stroke-miterlimit="1" stroke-width="1" points="45,361 -191,396 -155,475" style="fill:#187fbf;stroke:#187fbf;"></polygon><polygon stroke-linejoin="round" stroke-miterlimit="1" stroke-width="1" points="45,361 -191,375 -191,396" style="fill:#1379b8;stroke:#1379b8;"></polygon><polygon stroke-linejoin="round" stroke-miterlimit="1" stroke-width="1" points="45,361 -89,254 -191,375" style="fill:#1c84c4;stroke:#1c84c4;"></polygon><polygon stroke-linejoin="round" stroke-miterlimit="1" stroke-width="1" points="44,504 -98,512 29,549" style="fill:#0f74b3;stroke:#0f74b3;"></polygon><polygon stroke-linejoin="round" stroke-miterlimit="1" stroke-width="1" points="-155,475 -191,396 -191,396" style="fill:#c6ffff;stroke:#c6ffff;"></polygon><polygon stroke-linejoin="round" stroke-miterlimit="1" stroke-width="1" points="-89,254 -191,321 -191,375" style="fill:#0f74b3;stroke:#0f74b3;"></polygon><polygon stroke-linejoin="round" stroke-miterlimit="1" stroke-width="1" points="-78,137 -142,182 -89,254" style="fill:#2c98da;stroke:#2c98da;"></polygon><polygon stroke-linejoin="round" stroke-miterlimit="1" stroke-width="1" points="-59,89 -103,-51 -191,-51" style="fill:#1e87c8;stroke:#1e87c8;"></polygon><polygon stroke-linejoin="round" stroke-miterlimit="1" stroke-width="1" points="-59,89 -191,-51 -191,146" style="fill:#1b82c3;stroke:#1b82c3;"></polygon><polygon stroke-linejoin="round" stroke-miterlimit="1" stroke-width="1" points="-59,89 -79,-48 -103,-51" style="fill:#0f74b3;stroke:#0f74b3;"></polygon><polygon stroke-linejoin="round" stroke-miterlimit="1" stroke-width="1" points="-59,89 -191,146 -78,137" style="fill:#147aba;stroke:#147aba;"></polygon><polygon stroke-linejoin="round" stroke-miterlimit="1" stroke-width="1" points="-98,512 -155,475 -114,516" style="fill:#63dbff;stroke:#63dbff;"></polygon><polygon stroke-linejoin="round" stroke-miterlimit="1" stroke-width="1" points="-78,137 -191,146 -142,182" style="fill:#167dbd;stroke:#167dbd;"></polygon><polygon stroke-linejoin="round" stroke-miterlimit="1" stroke-width="1" points="-89,254 -142,182 -191,249" style="fill:#177ebe;stroke:#177ebe;"></polygon><polygon stroke-linejoin="round" stroke-miterlimit="1" stroke-width="1" points="-89,254 -191,249 -191,321" style="fill:#177ebe;stroke:#177ebe;"></polygon><polygon stroke-linejoin="round" stroke-miterlimit="1" stroke-width="1" points="-114,516 -155,475 -191,496" style="fill:#33a1e4;stroke:#33a1e4;"></polygon><polygon stroke-linejoin="round" stroke-miterlimit="1" stroke-width="1" points="-114,516 -191,496 -191,549" style="fill:#2690d1;stroke:#2690d1;"></polygon><polygon stroke-linejoin="round" stroke-miterlimit="1" stroke-width="1" points="-155,475 -191,396 -191,482" style="fill:#2690d2;stroke:#2690d2;"></polygon><polygon stroke-linejoin="round" stroke-miterlimit="1" stroke-width="1" points="-142,182 -191,146 -191,249" style="fill:#1c84c5;stroke:#1c84c5;"></polygon><polygon stroke-linejoin="round" stroke-miterlimit="1" stroke-width="1" points="-155,475 -191,482 -191,496" style="fill:#1076b5;stroke:#1076b5;"></polygon></svg>