<?xml version="1.0" standalone="no"?>
<!DOCTYPE svg PUBLIC "-//W3C//DTD SVG 20010904//EN"
 "http://www.w3.org/TR/2001/REC-SVG-20010904/DTD/svg10.dtd">
<svg version="1.0" xmlns="http://www.w3.org/2000/svg"
 width="700.000000pt" height="700.000000pt" viewBox="0 0 700.000000 700.000000"
 preserveAspectRatio="xMidYMid meet">
<metadata>
Created by potrace 1.14, written by Peter Selinger 2001-2017
</metadata>
<g transform="translate(0.000000,700.000000) scale(0.100000,-0.100000)"
fill="#000000" stroke="none">
<path d="M0 4910 l0 -2090 484 0 484 0 7 -67 c4 -38 13 -97 20 -133 50 -245
204 -420 440 -497 108 -35 310 -44 436 -19 303 59 477 284 519 668 6 65 10
789 10 2163 l0 2065 -1200 0 -1200 0 0 -2090z"/>
<path d="M4086 5983 c-9 -27 -381 -1106 -828 -2400 -750 -2173 -814 -2353
-837 -2362 -115 -46 -345 -93 -545 -112 -160 -15 -490 -7 -636 16 -315 48
-600 153 -824 302 -113 76 -283 234 -357 334 -28 38 -53 69 -55 69 -2 0 -4
-412 -4 -915 l0 -915 1695 0 1694 0 136 418 c75 229 176 536 223 682 l87 265
1090 0 1090 0 82 -250 c45 -137 145 -445 223 -683 l141 -432 269 0 270 0 0
1202 0 1201 -619 1796 c-341 988 -622 1804 -626 1814 -7 16 -56 17 -830 17
l-823 0 -16 -47z m998 -1745 c288 -882 606 -1864 606 -1871 0 -4 -345 -7 -766
-7 l-765 0 7 23 c4 12 170 525 370 1141 200 615 364 1120 364 1122 0 2 11 4
25 4 23 0 30 -18 159 -412z"/>
</g>
</svg>
