<svg version="1" xmlns="http://www.w3.org/2000/svg" width="933.333" height="933.333" viewBox="0 0 700.000000 700.000000"><path d="M0 209.5V418h96.8l.7 6.7c.4 3.8 1.3 9.7 2 13.3 5 24.5 20.4 42 44 49.7 10.8 3.5 31 4.4 43.6 1.9 30.3-5.9 47.6-28.3 51.8-66.8.8-6.6 1.1-77 1.1-215.8V1H0v208.5z"/><path d="M327.5 337l-82.9 240-7.5 2.5c-20 6.6-39.4 9.5-67.6 10.2-43.4 1.1-78.3-6-111.3-22.6-18.7-9.4-40.7-27.6-52.3-43.2C3.1 520.1.6 517 .4 517c-.2 0-.4 41.2-.4 91.5V700h338.9l13.6-41.8c7.5-22.9 17.6-53.6 22.3-68.2l8.7-26.5 108.4-.3c59.7-.1 108.8.1 109.2.5.4.5 10.7 31.2 22.8 68.3l21.9 67.5 27.1.3 27.1.2V459.8l-61.9-179.7C604 181.3 575.8 99.7 575.5 98.7c-.7-1.6-5.6-1.7-83-1.7h-82.2l-82.8 240zm180.9-60.8c27 82.8 60.6 186.4 60.6 187.1 0 .4-34.5.7-76.6.7h-76.5l.7-2.3c.4-1.2 17-52.5 37-114s36.4-112 36.4-112.3c0-.2 1.1-.4 2.5-.4 2.3 0 3 1.8 15.9 41.2z"/></svg>