<svg id="intro-bg" viewBox="0 0 2000 600" width="2000" height="600" xmlns="http://www.w3.org/2000/svg" xmlns:xlink="http://www.w3.org/1999/xlink" version="1.1">
    <g stroke-width="1" stroke-linejoin="bevel">
        <path d="M940.1 316L1055.9 422L1084.9 297Z" fill="#1a5e62" stroke="#1a5e62"></path>
        <path d="M940.1 316L936.1 495L1055.9 422Z" fill="#145053" stroke="#145053"></path>
        <path d="M1260.7 176L1125.9 144L1084.9 297Z" fill="#4ecdc4" stroke="#4ecdc4"></path>
        <path d="M1084.9 297L1125.9 144L940.1 316Z" fill="#206d70" stroke="#206d70"></path>
        <path d="M1274.7 404L1084.9 297L1055.9 422Z" fill="#4ecdc4" stroke="#4ecdc4"></path>
        <path d="M1274.7 404L1276.7 310L1084.9 297Z" fill="#45bcb6" stroke="#45bcb6"></path>
        <path d="M1123.9 600L1274.7 404L1055.9 422Z" fill="#349c9a" stroke="#349c9a"></path>
        <path d="M1125.9 144L864.1 130L940.1 316Z" fill="#349c9a" stroke="#349c9a"></path>
        <path d="M940.1 316L731.3 472L936.1 495Z" fill="#145053" stroke="#145053"></path>
        <path d="M936.1 495L1123.9 600L1055.9 422Z" fill="#1a5e62" stroke="#1a5e62"></path>
        <path d="M864.1 130L747.3 295L940.1 316Z" fill="#4ecdc4" stroke="#4ecdc4"></path>
        <path d="M731.3 472L881.1 600L936.1 495Z" fill="#145053" stroke="#145053"></path>
        <path d="M936.1 495L881.1 600L1123.9 600Z" fill="#45bcb6" stroke="#45bcb6"></path>
        <path d="M1276.7 310L1260.7 176L1084.9 297Z" fill="#3caca8" stroke="#3caca8"></path>
        <path d="M747.3 295L731.3 472L940.1 316Z" fill="#4ecdc4" stroke="#4ecdc4"></path>
        <path d="M1246.7 0L1052.9 0L1125.9 144Z" fill="#1a5e62" stroke="#1a5e62"></path>
        <path d="M1125.9 144L1052.9 0L864.1 130Z" fill="#45bcb6" stroke="#45bcb6"></path>
        <path d="M1052.9 0L903.1 0L864.1 130Z" fill="#0f4246" stroke="#0f4246"></path>
        <path d="M864.1 130L707.3 151L747.3 295Z" fill="#0f4246" stroke="#0f4246"></path>
        <path d="M753.3 0L707.3 151L864.1 130Z" fill="#0f4246" stroke="#0f4246"></path>
        <path d="M747.3 295L546.5 416L731.3 472Z" fill="#145053" stroke="#145053"></path>
        <path d="M1123.9 600L1286.7 600L1274.7 404Z" fill="#0f4246" stroke="#0f4246"></path>
        <path d="M1274.7 404L1463.5 282L1276.7 310Z" fill="#3caca8" stroke="#3caca8"></path>
        <path d="M559.5 600L694.3 600L731.3 472Z" fill="#0f4246" stroke="#0f4246"></path>
        <path d="M731.3 472L694.3 600L881.1 600Z" fill="#4ecdc4" stroke="#4ecdc4"></path>
        <path d="M1260.7 176L1246.7 0L1125.9 144Z" fill="#4ecdc4" stroke="#4ecdc4"></path>
        <path d="M1472.5 0L1246.7 0L1260.7 176Z" fill="#206d70" stroke="#206d70"></path>
        <path d="M707.3 151L588.5 274L747.3 295Z" fill="#0f4246" stroke="#0f4246"></path>
        <path d="M903.1 0L753.3 0L864.1 130Z" fill="#206d70" stroke="#206d70"></path>
        <path d="M707.3 151L533.5 154L588.5 274Z" fill="#206d70" stroke="#206d70"></path>
        <path d="M1286.7 600L1447.5 464L1274.7 404Z" fill="#4ecdc4" stroke="#4ecdc4"></path>
        <path d="M1276.7 310L1463.5 282L1260.7 176Z" fill="#206d70" stroke="#206d70"></path>
        <path d="M1447.5 464L1463.5 282L1274.7 404Z" fill="#4ecdc4" stroke="#4ecdc4"></path>
        <path d="M588.5 274L546.5 416L747.3 295Z" fill="#267c7e" stroke="#267c7e"></path>
        <path d="M1620.4 113L1490.5 156L1670.4 268Z" fill="#3caca8" stroke="#3caca8"></path>
        <path d="M1463.5 282L1490.5 156L1260.7 176Z" fill="#3caca8" stroke="#3caca8"></path>
        <path d="M1286.7 600L1466.5 600L1447.5 464Z" fill="#45bcb6" stroke="#45bcb6"></path>
        <path d="M1670.4 458L1670.4 268L1463.5 282Z" fill="#4ecdc4" stroke="#4ecdc4"></path>
        <path d="M523.5 0L533.5 154L707.3 151Z" fill="#45bcb6" stroke="#45bcb6"></path>
        <path d="M335.6 319L391.6 455L546.5 416Z" fill="#2d8c8c" stroke="#2d8c8c"></path>
        <path d="M546.5 416L559.5 600L731.3 472Z" fill="#1a5e62" stroke="#1a5e62"></path>
        <path d="M1490.5 156L1472.5 0L1260.7 176Z" fill="#0a3438" stroke="#0a3438"></path>
        <path d="M753.3 0L523.5 0L707.3 151Z" fill="#206d70" stroke="#206d70"></path>
        <path d="M335.6 319L546.5 416L588.5 274Z" fill="#1a5e62" stroke="#1a5e62"></path>
        <path d="M1466.5 600L1594.4 600L1447.5 464Z" fill="#0a3438" stroke="#0a3438"></path>
        <path d="M1490.5 156L1620.4 113L1472.5 0Z" fill="#45bcb6" stroke="#45bcb6"></path>
        <path d="M335.6 319L588.5 274L533.5 154Z" fill="#4ecdc4" stroke="#4ecdc4"></path>
        <path d="M546.5 416L391.6 455L559.5 600Z" fill="#267c7e" stroke="#267c7e"></path>
        <path d="M1670.4 268L1490.5 156L1463.5 282Z" fill="#1a5e62" stroke="#1a5e62"></path>
        <path d="M1670.4 458L1463.5 282L1447.5 464Z" fill="#145053" stroke="#145053"></path>
        <path d="M1594.4 600L1670.4 458L1447.5 464Z" fill="#1a5e62" stroke="#1a5e62"></path>
        <path d="M391.6 455L390.6 600L559.5 600Z" fill="#1a5e62" stroke="#1a5e62"></path>
        <path d="M328.6 164L335.6 319L533.5 154Z" fill="#267c7e" stroke="#267c7e"></path>
        <path d="M391.6 455L206.8 600L390.6 600Z" fill="#349c9a" stroke="#349c9a"></path>
        <path d="M332.6 0L328.6 164L533.5 154Z" fill="#349c9a" stroke="#349c9a"></path>
        <path d="M1842.2 109L1620.4 113L1670.4 268Z" fill="#0f4246" stroke="#0f4246"></path>
        <path d="M1842.2 109L1672.4 0L1620.4 113Z" fill="#0f4246" stroke="#0f4246"></path>
        <path d="M1620.4 113L1672.4 0L1472.5 0Z" fill="#0f4246" stroke="#0f4246"></path>
        <path d="M523.5 0L332.6 0L533.5 154Z" fill="#349c9a" stroke="#349c9a"></path>
        <path d="M1670.4 458L1807.2 332L1670.4 268Z" fill="#349c9a" stroke="#349c9a"></path>
        <path d="M1851.2 456L1807.2 332L1670.4 458Z" fill="#3caca8" stroke="#3caca8"></path>
        <path d="M1594.4 600L1803.2 600L1670.4 458Z" fill="#3caca8" stroke="#3caca8"></path>
        <path d="M1803.2 600L1851.2 456L1670.4 458Z" fill="#45bcb6" stroke="#45bcb6"></path>
        <path d="M170.8 284L335.6 319L328.6 164Z" fill="#3caca8" stroke="#3caca8"></path>
        <path d="M170.8 284L184.8 466L335.6 319Z" fill="#0a3438" stroke="#0a3438"></path>
        <path d="M335.6 319L184.8 466L391.6 455Z" fill="#145053" stroke="#145053"></path>
        <path d="M198.8 115L170.8 284L328.6 164Z" fill="#45bcb6" stroke="#45bcb6"></path>
        <path d="M184.8 466L206.8 600L391.6 455Z" fill="#349c9a" stroke="#349c9a"></path>
        <path d="M332.6 0L198.8 115L328.6 164Z" fill="#206d70" stroke="#206d70"></path>
        <path d="M2000 299L1842.2 109L1807.2 332Z" fill="#267c7e" stroke="#267c7e"></path>
        <path d="M1807.2 332L1842.2 109L1670.4 268Z" fill="#45bcb6" stroke="#45bcb6"></path>
        <path d="M1842.2 109L1820.2 0L1672.4 0Z" fill="#1a5e62" stroke="#1a5e62"></path>
        <path d="M332.6 0L167.8 0L198.8 115Z" fill="#45bcb6" stroke="#45bcb6"></path>
        <path d="M0 154L0 271L170.8 284Z" fill="#267c7e" stroke="#267c7e"></path>
        <path d="M2000 408L2000 299L1807.2 332Z" fill="#2d8c8c" stroke="#2d8c8c"></path>
        <path d="M1842.2 109L2000 0L1820.2 0Z" fill="#206d70" stroke="#206d70"></path>
        <path d="M2000 408L1807.2 332L1851.2 456Z" fill="#349c9a" stroke="#349c9a"></path>
        <path d="M2000 600L2000 408L1851.2 456Z" fill="#267c7e" stroke="#267c7e"></path>
        <path d="M2000 299L2000 148L1842.2 109Z" fill="#0f4246" stroke="#0f4246"></path>
        <path d="M1803.2 600L2000 600L1851.2 456Z" fill="#145053" stroke="#145053"></path>
        <path d="M0 154L170.8 284L198.8 115Z" fill="#0f4246" stroke="#0f4246"></path>
        <path d="M170.8 284L0 438L184.8 466Z" fill="#145053" stroke="#145053"></path>
        <path d="M184.8 466L0 600L206.8 600Z" fill="#45bcb6" stroke="#45bcb6"></path>
        <path d="M0 271L0 438L170.8 284Z" fill="#4ecdc4" stroke="#4ecdc4"></path>
        <path d="M167.8 0L0 154L198.8 115Z" fill="#45bcb6" stroke="#45bcb6"></path>
        <path d="M2000 148L2000 0L1842.2 109Z" fill="#145053" stroke="#145053"></path>
        <path d="M0 438L0 600L184.8 466Z" fill="#0a3438" stroke="#0a3438"></path>
        <path d="M167.8 0L0 0L0 154Z" fill="#145053" stroke="#145053"></path>
    </g>
</svg>