<?xml version="1.0" encoding="UTF-8" standalone="no"?>
<!-- Generator: Adobe Illustrator 16.0.0, SVG Export Plug-In . SVG Version: 6.00 Build 0)  -->

<svg
   xmlns:dc="http://purl.org/dc/elements/1.1/"
   xmlns:cc="http://creativecommons.org/ns#"
   xmlns:rdf="http://www.w3.org/1999/02/22-rdf-syntax-ns#"
   xmlns:svg="http://www.w3.org/2000/svg"
   xmlns="http://www.w3.org/2000/svg"
   xmlns:xlink="http://www.w3.org/1999/xlink"
   xmlns:sodipodi="http://sodipodi.sourceforge.net/DTD/sodipodi-0.dtd"
   xmlns:inkscape="http://www.inkscape.org/namespaces/inkscape"
   version="1.1"
   id="Layer_1"
   x="0px"
   y="0px"
   width="97px"
   height="97px"
   viewBox="0 0 97 97"
   enable-background="new 0 0 97 97"
   xml:space="preserve"
   sodipodi:docname="Git_icon.svg"
   inkscape:version="0.92.4 5da689c313, 2019-01-14"><metadata
   id="metadata1748"><rdf:RDF><cc:Work
       rdf:about=""><dc:format>image/svg+xml</dc:format><dc:type
         rdf:resource="http://purl.org/dc/dcmitype/StillImage" /></cc:Work></rdf:RDF></metadata><defs
   id="defs1746"><linearGradient
     inkscape:collect="always"
     xlink:href="#linearGradient4630"
     id="linearGradient4634"
     gradientUnits="userSpaceOnUse"
     x1="-328.07098"
     y1="256.15372"
     x2="-351.12512"
     y2="285.84305"
     gradientTransform="matrix(3.7796051,0,0,3.7793934,1325.8813,-956.18619)" /><linearGradient
     inkscape:collect="always"
     id="linearGradient4630"><stop
       style="stop-color:#2683de;stop-opacity:1"
       offset="0"
       id="stop4626" /><stop
       style="stop-color:#26dedd;stop-opacity:1"
       offset="1"
       id="stop4628" /></linearGradient></defs><sodipodi:namedview
   pagecolor="#ffffff"
   bordercolor="#666666"
   borderopacity="1"
   objecttolerance="10"
   gridtolerance="10"
   guidetolerance="10"
   inkscape:pageopacity="0"
   inkscape:pageshadow="2"
   inkscape:window-width="1900"
   inkscape:window-height="1022"
   id="namedview1744"
   showgrid="false"
   inkscape:zoom="2.4329897"
   inkscape:cx="-35.963983"
   inkscape:cy="48.5"
   inkscape:window-x="10"
   inkscape:window-y="48"
   inkscape:window-maximized="1"
   inkscape:current-layer="Layer_1" />
<g
   id="g1741"
   style="font-variant-east_asian:normal;opacity:1;vector-effect:none;fill:url(#linearGradient4634);fill-opacity:1;stroke-width:3.77949918;stroke-linecap:butt;stroke-linejoin:miter;stroke-miterlimit:4;stroke-dasharray:none;stroke-dashoffset:0;stroke-opacity:1">
	<path
   fill="#F05133"
   d="M92.71,44.408L52.591,4.291c-2.31-2.311-6.057-2.311-8.369,0l-8.33,8.332L46.459,23.19   c2.456-0.83,5.272-0.273,7.229,1.685c1.969,1.97,2.521,4.81,1.67,7.275l10.186,10.185c2.465-0.85,5.307-0.3,7.275,1.671   c2.75,2.75,2.75,7.206,0,9.958c-2.752,2.751-7.208,2.751-9.961,0c-2.068-2.07-2.58-5.11-1.531-7.658l-9.5-9.499v24.997   c0.67,0.332,1.303,0.774,1.861,1.332c2.75,2.75,2.75,7.206,0,9.959c-2.75,2.749-7.209,2.749-9.957,0c-2.75-2.754-2.75-7.21,0-9.959   c0.68-0.679,1.467-1.193,2.307-1.537V36.369c-0.84-0.344-1.625-0.853-2.307-1.537c-2.083-2.082-2.584-5.14-1.516-7.698   L31.798,16.715L4.288,44.222c-2.311,2.313-2.311,6.06,0,8.371l40.121,40.118c2.31,2.311,6.056,2.311,8.369,0L92.71,52.779   C95.021,50.468,95.021,46.719,92.71,44.408z"
   id="path1739"
   style="font-variant-east_asian:normal;vector-effect:none;fill:url(#linearGradient4634);fill-opacity:1.0;stroke-width:3.77949918;stroke-linecap:butt;stroke-linejoin:miter;stroke-miterlimit:4;stroke-dasharray:none;stroke-dashoffset:0;stroke-opacity:1" />
</g>
</svg>